<?xml version="1.0" standalone="no"?>
<!DOCTYPE svg PUBLIC "-//W3C//DTD SVG 20010904//EN"
 "http://www.w3.org/TR/2001/REC-SVG-20010904/DTD/svg10.dtd">
<svg version="1.0" xmlns="http://www.w3.org/2000/svg"
 width="1224.000000pt" height="1224.000000pt" viewBox="0 0 1224.000000 1224.000000"
 preserveAspectRatio="xMidYMid meet">

<g transform="translate(0.000000,1224.000000) scale(0.100000,-0.100000)"
fill="#000000" stroke="none">
<path d="M5265 10341 c-136 -33 -253 -100 -351 -199 -94 -95 -155 -199 -196
-334 -22 -71 -22 -86 -26 -676 -3 -599 -3 -603 18 -637 39 -63 121 -55 157 16
10 18 13 164 13 604 0 355 4 597 11 624 22 98 75 190 156 270 90 89 165 131
280 157 235 52 494 -70 608 -287 69 -132 65 46 65 -2450 0 -1473 3 -2275 10
-2309 13 -70 52 -153 96 -207 19 -23 81 -74 138 -113 277 -188 454 -399 567
-676 147 -359 150 -764 10 -1117 -131 -329 -370 -595 -691 -769 -287 -156
-667 -211 -990 -143 -535 112 -976 516 -1124 1028 -85 293 -82 606 9 892 36
114 114 270 187 377 80 118 256 295 373 375 159 109 172 121 214 184 79 118
76 81 76 917 l0 744 -33 29 c-35 31 -57 35 -95 18 -54 -24 -52 4 -57 -800 l-5
-746 -34 -50 c-25 -37 -65 -71 -150 -129 -298 -203 -540 -523 -650 -861 -60
-185 -76 -295 -75 -528 0 -179 4 -226 23 -315 113 -528 432 -946 896 -1174
588 -290 1275 -216 1790 194 100 79 267 259 334 360 204 305 304 655 288 1010
-25 546 -303 1034 -764 1337 -46 30 -94 69 -107 87 -54 73 -51 -78 -53 2391
-1 2274 -1 2291 -22 2368 -70 267 -297 487 -560 542 -95 20 -248 18 -336 -4z"/>
<path d="M5370 8699 c-148 -29 -267 -147 -299 -297 -8 -38 -11 -574 -11 -1913
0 -1619 -2 -1864 -15 -1888 -9 -18 -41 -44 -82 -67 -167 -92 -268 -177 -366
-309 -150 -202 -215 -415 -204 -677 8 -205 57 -360 170 -531 290 -444 867
-601 1342 -365 277 138 473 380 557 690 19 71 22 107 22 253 -1 152 -3 181
-27 269 -73 273 -257 508 -505 648 -52 29 -102 64 -111 78 -15 22 -16 190 -21
1920 l-5 1895 -23 57 c-27 67 -103 155 -166 192 -44 26 -152 57 -191 55 -11
-1 -40 -5 -65 -10z m-405 -4985 c23 -25 25 -34 24 -128 -1 -200 84 -351 243
-432 51 -26 88 -66 88 -96 0 -34 -33 -77 -68 -89 -30 -10 -40 -8 -95 20 -139
69 -252 191 -306 331 -59 153 -66 329 -14 390 34 41 93 42 128 4z"/>
<path d="M3782 8203 c-19 -7 -42 -58 -42 -92 0 -17 10 -42 24 -58 l24 -28 454
4 c318 2 457 7 467 15 8 6 20 26 28 44 12 29 11 37 -3 68 -9 20 -28 40 -41 45
-25 9 -888 12 -911 2z"/>
<path d="M7127 7813 c-2 -5 -14 -39 -27 -78 -115 -363 -315 -789 -579 -1235
l-86 -145 -2 -540 -3 -540 52 -35 c86 -58 252 -205 334 -297 271 -304 435
-640 510 -1045 25 -131 30 -476 10 -623 -42 -299 -142 -575 -299 -825 -77
-122 -161 -225 -290 -357 l-129 -132 38 -10 c384 -101 732 -92 1096 26 142 46
376 164 490 245 424 307 682 714 779 1233 19 98 23 155 23 310 0 266 -25 398
-128 704 -147 432 -301 745 -564 1146 -225 342 -473 754 -592 980 -34 66 -73
138 -86 160 -172 301 -337 654 -413 885 -60 183 -59 180 -96 180 -19 0 -36 -3
-38 -7z m1443 -4057 c19 -159 0 -341 -57 -520 -145 -462 -542 -838 -990 -940
-35 -8 -63 -11 -63 -6 0 4 19 20 43 35 23 16 85 61 137 100 451 342 730 766
875 1332 16 61 32 110 36 108 3 -3 12 -51 19 -109z"/>
<path d="M3215 7630 c-9 -10 -20 -39 -22 -64 -5 -38 -2 -48 20 -70 l26 -26
721 0 c476 0 728 4 741 10 10 6 26 24 34 41 13 25 14 37 5 65 -23 68 22 64
-781 64 -708 0 -726 0 -744 -20z"/>
<path d="M3792 7093 c-60 -11 -78 -116 -27 -160 l26 -23 437 0 c240 0 447 3
459 6 56 15 74 108 29 153 l-26 26 -438 1 c-240 0 -447 -1 -460 -3z"/>
</g>
</svg>
