<?xml version="1.0" standalone="no"?>
<!DOCTYPE svg PUBLIC "-//W3C//DTD SVG 20010904//EN"
 "http://www.w3.org/TR/2001/REC-SVG-20010904/DTD/svg10.dtd">
<svg version="1.0" xmlns="http://www.w3.org/2000/svg"
 width="1224.000000pt" height="1224.000000pt" viewBox="0 0 1224.000000 1224.000000"
 preserveAspectRatio="xMidYMid meet">

<g transform="translate(0.000000,1224.000000) scale(0.100000,-0.100000)"
fill="#000000" stroke="none">
<path d="M4339 10630 c-436 -55 -771 -373 -864 -818 -13 -65 -15 -401 -15
-2824 l0 -2750 -90 -96 c-191 -201 -323 -452 -380 -722 -28 -131 -38 -360 -20
-496 62 -498 369 -935 811 -1155 191 -96 335 -136 571 -159 248 -25 555 39
796 165 411 214 691 586 789 1045 26 121 26 459 0 579 -62 286 -193 539 -386
743 l-91 96 0 2758 c0 2696 -1 2761 -20 2847 -52 235 -190 453 -375 590 -204
152 -483 228 -726 197z m280 -361 c198 -47 387 -220 459 -421 26 -72 26 -76
33 -453 4 -209 7 -1496 8 -2860 l1 -2480 37 -25 c112 -76 259 -253 335 -404
84 -167 121 -327 121 -526 -2 -546 -388 -1012 -933 -1125 -104 -22 -304 -25
-410 -6 -360 64 -678 299 -840 620 -43 86 -95 248 -110 343 -18 110 -8 350 18
448 67 254 204 472 388 620 l81 64 0 2826 c1 3150 -5 2885 71 3038 45 90 154
212 236 261 66 39 167 78 240 91 59 10 197 5 265 -11z"/>
<path d="M4359 9301 c-103 -33 -175 -97 -222 -199 l-22 -47 -3 -2582 -2 -2582
-78 -46 c-157 -96 -268 -218 -341 -376 -65 -142 -76 -194 -75 -364 0 -136 3
-158 28 -235 16 -47 42 -112 58 -145 208 -415 721 -586 1133 -378 224 114 366
281 442 521 25 79 28 101 28 237 0 126 -4 163 -23 228 -63 218 -206 402 -401
516 l-71 42 -2 2587 -3 2587 -36 65 c-46 84 -116 142 -205 170 -80 24 -131 25
-205 1z"/>
<path d="M6036 10275 c-45 -16 -90 -56 -106 -94 -7 -18 -10 -147 -8 -413 3
-374 4 -387 24 -415 11 -15 36 -39 55 -51 28 -20 44 -23 94 -20 71 4 117 33
146 90 18 35 19 63 19 407 0 238 -4 380 -11 398 -31 82 -130 128 -213 98z"/>
<path d="M7302 9936 c-65 -23 -77 -41 -333 -490 -106 -186 -113 -203 -113
-251 3 -145 164 -221 275 -128 38 32 40 35 234 373 98 170 159 288 162 311 10
74 -32 149 -101 180 -47 21 -77 23 -124 5z"/>
<path d="M8236 9008 c-25 -9 -274 -151 -578 -329 -49 -29 -75 -52 -93 -83 -50
-86 -21 -190 65 -233 85 -43 99 -39 376 120 385 221 392 225 420 262 70 92 20
233 -94 265 -44 12 -58 12 -96 -2z"/>
<path d="M5943 8854 l-23 -5 0 -1274 0 -1274 36 -7 c57 -10 311 2 391 20 296
64 552 220 734 447 114 141 167 235 222 394 93 270 95 550 5 825 -84 257 -258
491 -481 648 -131 92 -326 176 -487 208 -73 15 -353 27 -397 18z"/>
<path d="M7905 7735 c-50 -18 -90 -61 -106 -115 -24 -79 18 -167 96 -205 49
-22 738 -23 792 0 50 21 72 42 94 90 24 51 24 96 0 143 -23 46 -46 67 -94 87
-52 21 -721 22 -782 0z"/>
<path d="M7645 6796 c-102 -45 -137 -179 -69 -263 19 -23 99 -75 234 -153 113
-64 251 -145 308 -178 115 -66 153 -78 211 -62 51 13 87 43 111 91 39 75 14
166 -58 215 -50 35 -547 322 -597 345 -47 22 -98 24 -140 5z"/>
<path d="M6939 6099 c-82 -49 -104 -156 -52 -252 41 -73 301 -524 329 -568 25
-40 96 -79 141 -79 40 1 106 33 131 64 29 38 45 92 39 135 -3 22 -70 151 -176
334 -194 338 -188 329 -226 359 -42 33 -137 36 -186 7z"/>
<path d="M5999 5847 c-18 -12 -44 -40 -56 -62 -22 -40 -23 -45 -23 -418 0
-354 1 -380 19 -415 46 -88 160 -115 242 -57 80 57 79 51 79 470 0 365 0 372
-22 415 -43 85 -163 118 -239 67z"/>
<path d="M7915 4359 c-169 -16 -364 -87 -596 -216 -230 -128 -361 -175 -522
-192 -142 -14 -332 7 -491 54 -76 23 -81 20 -48 -27 48 -70 211 -220 295 -272
43 -27 118 -63 165 -80 83 -29 95 -30 242 -30 130 0 169 3 240 23 153 41 327
117 479 209 118 71 240 129 327 154 67 19 102 23 239 23 136 0 181 -4 298 -28
76 -16 140 -27 142 -25 7 6 -108 151 -159 201 -109 106 -272 188 -401 201 -33
4 -73 8 -90 10 -16 2 -70 -1 -120 -5z"/>
<path d="M8335 3594 c-225 -32 -354 -78 -685 -245 -118 -59 -263 -124 -322
-144 -266 -88 -515 -84 -852 17 -54 16 -100 27 -102 25 -8 -8 130 -169 217
-252 147 -141 268 -211 444 -256 73 -19 115 -23 225 -22 228 2 440 62 714 205
452 234 502 251 741 252 160 0 269 -14 448 -61 54 -14 101 -23 103 -20 9 9
-93 153 -157 222 -114 121 -261 213 -411 255 -71 21 -288 35 -363 24z"/>
</g>
</svg>
