<?xml version="1.0" standalone="no"?>
<!DOCTYPE svg PUBLIC "-//W3C//DTD SVG 20010904//EN"
 "http://www.w3.org/TR/2001/REC-SVG-20010904/DTD/svg10.dtd">
<svg version="1.0" xmlns="http://www.w3.org/2000/svg"
 width="1224.000000pt" height="1224.000000pt" viewBox="0 0 1224.000000 1224.000000"
 preserveAspectRatio="xMidYMid meet">

<g transform="translate(0.000000,1224.000000) scale(0.100000,-0.100000)"
fill="#000000" stroke="none">
<path d="M1360 11293 c0 -5 -3 -50 -6 -101 -6 -111 7 -168 41 -184 22 -10 45
-57 45 -94 0 -24 80 -83 131 -98 29 -9 58 -16 65 -16 6 0 22 21 35 48 80 159
347 161 420 2 24 -50 24 -51 64 -45 63 9 136 54 162 100 13 22 23 48 23 58 0
10 16 33 35 51 l35 33 0 127 0 126 -525 0 c-289 0 -525 -3 -525 -7z m230 -133
c47 0 59 -3 62 -17 10 -37 -1 -43 -83 -43 l-79 0 0 28 c0 33 8 45 28 37 7 -3
40 -5 72 -5z m383 -10 c5 -4 6 -17 2 -29 -6 -19 -14 -21 -86 -21 l-79 0 0 28
c0 16 2 31 5 33 7 8 149 -2 158 -11z m307 -20 l0 -30 -80 0 c-83 0 -100 9 -86
45 4 12 24 15 86 15 l80 0 0 -30z"/>
<path d="M7315 11286 c-127 -16 -206 -39 -244 -72 l-31 -26 0 -122 c0 -164 -1
-162 117 -133 77 18 93 26 98 45 6 26 52 31 61 7 12 -30 173 -16 181 16 10 35
52 27 65 -13 3 -8 32 -14 83 -16 65 -4 81 -2 91 13 17 23 58 16 62 -10 2 -17
19 -24 94 -43 69 -17 94 -19 105 -11 11 9 13 42 11 148 l-3 136 -55 27 c-30
15 -91 34 -135 43 -107 22 -371 28 -500 11z"/>
<path d="M10155 11280 c-126 -20 -231 -61 -259 -102 -10 -14 -16 -44 -16 -81
0 -52 2 -58 18 -52 52 20 192 47 299 57 173 17 434 -10 556 -57 15 -6 17 0 17
49 0 94 -38 128 -188 167 -89 24 -329 34 -427 19z"/>
<path d="M3767 11203 c-13 -12 -7 -217 6 -233 28 -36 62 -50 119 -50 l57 0 21
-57 c12 -32 35 -94 50 -138 15 -44 37 -99 49 -122 l21 -43 299 0 299 0 15 23
c13 20 34 75 107 275 l22 62 52 0 c114 0 149 48 144 199 l-3 86 -626 3 c-344
1 -629 -1 -632 -5z m728 -218 l0 -30 -102 -3 -103 -3 0 36 0 36 103 -3 102 -3
0 -30z m-277 -232 l-3 -88 -40 0 -40 0 -3 88 -3 87 46 0 46 0 -3 -87z m222 8
c0 -44 -5 -83 -10 -86 -17 -11 -71 -9 -78 2 -4 6 -6 45 -4 87 l4 76 44 0 44 0
0 -79z m208 -8 l-3 -88 -40 0 -40 0 -3 88 -3 87 46 0 46 0 -3 -87z"/>
<path d="M10104 11016 c-45 -7 -113 -23 -153 -35 l-71 -22 0 -105 c0 -118 14
-161 71 -208 28 -24 100 -66 113 -66 3 0 10 17 15 38 14 48 62 98 120 125 36
16 67 21 141 21 87 1 99 -2 149 -29 57 -32 95 -74 106 -117 9 -33 10 -34 55
-7 98 59 120 104 120 242 l0 105 -27 11 c-16 6 -66 20 -113 32 -109 27 -403
35 -526 15z"/>
<path d="M7560 10909 c0 -10 -10 -24 -22 -30 -18 -10 -24 -8 -35 7 -7 10 -13
21 -13 26 0 4 -36 8 -79 8 -79 0 -79 0 -90 -30 -12 -36 -50 -42 -58 -10 -6 23
-29 25 -85 9 -37 -10 -38 -11 -38 -57 0 -62 17 -85 82 -110 154 -60 399 -65
570 -12 98 30 118 50 118 115 0 54 0 54 -37 64 -57 16 -80 14 -86 -9 -3 -14
-14 -20 -31 -20 -21 0 -26 5 -26 25 0 31 -4 32 -97 38 -66 4 -73 2 -73 -14z"/>
<path d="M1830 10880 c-41 -10 -90 -61 -90 -93 0 -27 33 -61 73 -76 76 -29
191 4 211 61 24 69 -91 133 -194 108z"/>
<path d="M2000 10644 c-52 -39 -109 -58 -151 -49 -16 4 -50 22 -75 41 -48 37
-80 41 -98 12 -8 -14 -5 -23 19 -49 53 -55 107 -80 174 -81 69 -1 107 12 172
59 49 35 62 59 47 87 -13 24 -38 19 -88 -20z"/>
<path d="M10230 10658 c-58 -29 -79 -69 -56 -103 29 -44 73 -60 166 -60 97 0
148 21 164 68 23 64 -36 108 -154 114 -64 4 -82 1 -120 -19z"/>
<path d="M7650 10573 c-53 -19 -78 -23 -135 -19 -38 2 -87 12 -107 20 -50 22
-75 20 -89 -5 -9 -17 -7 -25 11 -44 54 -58 234 -76 343 -35 87 33 109 66 62
95 -17 10 -31 8 -85 -12z"/>
<path d="M1604 10524 c-8 -33 17 -68 80 -112 139 -94 326 -77 448 41 42 41 47
71 16 91 -14 8 -23 6 -45 -12 -114 -92 -151 -107 -243 -100 -66 5 -115 27
-174 79 -51 46 -73 49 -82 13z"/>
<path d="M7246 10444 c-30 -29 -19 -52 39 -82 153 -77 350 -75 508 4 41 21 48
29 45 51 -5 45 -29 50 -95 20 -131 -59 -263 -62 -397 -8 -43 17 -79 31 -81 31
-2 0 -11 -7 -19 -16z"/>
<path d="M4622 10420 c-32 -14 -53 -66 -39 -103 14 -42 67 -63 106 -43 49 26
57 91 16 131 -25 26 -45 30 -83 15z"/>
<path d="M5184 10321 c-17 -4 -49 -18 -71 -31 l-41 -23 -53 27 c-121 60 -245
6 -283 -125 -11 -37 -18 -43 -57 -56 -63 -21 -117 -76 -135 -140 -32 -110 27
-229 130 -263 27 -9 35 -17 40 -44 8 -41 76 -120 125 -145 62 -32 129 -35 201
-11 l64 22 50 -24 c110 -51 249 -16 321 81 19 27 38 62 41 79 4 20 25 46 61
78 65 55 83 93 83 169 0 91 -52 166 -136 195 -21 8 -34 23 -48 57 -48 117
-173 182 -292 154z m-217 -279 c19 -23 6 -33 -37 -26 -22 4 -51 3 -65 0 -62
-16 -89 -143 -40 -191 21 -22 33 -25 90 -25 50 0 65 -3 65 -15 0 -43 -130 -47
-176 -4 -70 64 -71 183 -2 246 44 41 138 49 165 15z m266 1 c94 -48 88 -230
-9 -277 -72 -34 -148 -7 -184 65 -43 83 -8 188 75 225 32 15 73 10 118 -13z
m245 -136 c12 -25 11 -33 -8 -68 l-21 -41 21 -5 c12 -3 20 -12 18 -22 -2 -12
-17 -17 -61 -19 -50 -3 -57 -1 -57 16 0 10 9 27 21 38 22 20 49 66 49 84 0 7
-12 9 -35 4 -38 -7 -41 -3 -24 27 17 32 80 23 97 -14z"/>
<path d="M5099 9989 c-40 -43 -41 -113 -3 -158 21 -26 33 -31 69 -31 35 0 48
5 64 26 43 55 36 133 -17 174 -37 30 -79 26 -113 -11z"/>
<path d="M10200 10224 c-36 -19 -123 -65 -195 -102 l-130 -67 -119 -6 c-118
-5 -119 -5 -147 -37 l-29 -32 0 -153 c0 -129 3 -155 18 -173 30 -38 61 -47
159 -45 l94 1 205 -105 c113 -58 213 -105 224 -105 10 0 26 10 34 22 14 19 16
75 16 410 0 375 -1 389 -20 408 -26 26 -33 25 -110 -16z"/>
<path d="M10842 10238 c-22 -22 -13 -47 34 -95 192 -200 199 -427 19 -619 -58
-62 -65 -82 -39 -108 20 -21 37 -11 95 51 110 117 151 212 152 348 0 58 -6
110 -17 146 -28 94 -109 214 -180 267 -34 25 -47 27 -64 10z"/>
<path d="M4294 10198 c-29 -28 -35 -40 -36 -75 -1 -53 23 -90 69 -110 31 -12
41 -13 72 -1 40 15 81 68 81 105 0 37 -27 81 -60 98 -47 24 -86 19 -126 -17z"/>
<path d="M1833 10181 c-7 -22 -34 -75 -60 -117 -57 -95 -67 -157 -34 -221 29
-58 73 -86 140 -91 46 -3 62 0 90 20 71 48 95 117 71 202 -13 49 -61 109 -68
85 -9 -30 -35 -79 -41 -79 -4 0 -5 28 -3 63 3 57 1 66 -33 120 -20 31 -40 57
-43 57 -4 0 -13 -18 -19 -39z"/>
<path d="M7446 10145 c-82 -81 -91 -102 -91 -218 0 -53 -3 -97 -7 -97 -13 0
-57 61 -69 97 l-12 37 -24 -48 c-30 -59 -63 -185 -63 -241 0 -23 7 -64 15 -91
15 -50 90 -155 122 -173 17 -8 18 -4 15 62 -4 69 -2 75 42 159 38 71 45 92 39
120 l-6 33 21 -19 c12 -10 32 -39 44 -65 20 -40 23 -43 26 -22 2 13 -1 52 -8
88 -6 36 -8 68 -5 71 12 12 95 -84 126 -147 19 -38 34 -59 37 -51 3 8 9 26 14
39 l9 24 33 -32 c50 -49 73 -152 53 -241 l-8 -35 60 63 c49 52 62 73 76 126
15 55 16 71 5 118 -21 89 -64 160 -139 234 -39 37 -79 86 -89 107 l-18 39 -30
-35 c-16 -18 -34 -42 -39 -51 -9 -16 -13 -12 -35 26 -19 34 -24 58 -25 110 0
38 -3 68 -6 68 -4 0 -32 -25 -63 -55z"/>
<path d="M10697 10122 c-24 -26 -22 -32 30 -93 61 -72 85 -127 85 -200 0 -71
-31 -143 -90 -212 -47 -54 -46 -51 -32 -78 21 -38 55 -21 122 62 97 118 109
262 36 402 -28 52 -106 137 -126 137 -5 0 -16 -8 -25 -18z"/>
<path d="M10526 10044 c-23 -23 -20 -41 18 -93 39 -53 59 -118 50 -158 -3 -15
-24 -55 -45 -89 -41 -64 -43 -88 -7 -100 42 -13 122 100 134 190 12 81 -45
213 -107 250 -25 15 -29 15 -43 0z"/>
<path d="M1626 9762 c-10 -2 -46 -21 -80 -41 l-61 -38 -3 -55 -3 -56 -50 -4
c-28 -3 -55 -10 -62 -17 -6 -6 -13 -45 -15 -86 l-4 -75 531 0 531 0 0 73 c0
39 -4 78 -9 86 -5 7 -29 15 -54 18 l-45 5 -4 49 c-6 60 -21 77 -103 119 -53
27 -67 31 -80 20 -31 -26 -18 -57 39 -94 52 -33 74 -65 61 -86 -4 -6 -63 -10
-145 -10 l-140 0 -6 28 c-9 36 -23 52 -45 52 -21 0 -39 -28 -39 -59 0 -20 -5
-21 -141 -21 l-140 0 3 32 c3 27 12 37 61 66 34 21 57 41 57 52 0 23 -31 47
-54 42z"/>
<path d="M4427 8483 c-4 -3 -7 -37 -7 -74 0 -94 13 -108 115 -120 44 -5 81
-13 83 -19 7 -20 55 -59 80 -65 35 -9 88 12 116 46 22 26 35 31 103 39 43 6
84 17 92 25 11 10 15 38 15 92 l1 78 -296 3 c-162 1 -298 -1 -302 -5z m327
-129 c19 -18 20 -28 6 -55 -19 -35 -80 -18 -80 22 0 21 26 49 45 49 7 0 21 -7
29 -16z"/>
<path d="M1700 8473 c-180 -14 -474 -97 -533 -151 -37 -33 -38 -56 -11 -235
14 -95 28 -196 31 -225 3 -29 9 -54 12 -56 3 -2 44 4 91 14 47 9 88 14 92 11
10 -10 50 -152 43 -159 -3 -3 -32 -8 -65 -10 -40 -3 -60 -9 -60 -17 0 -23 57
-152 79 -181 55 -70 162 -121 306 -145 105 -17 354 -14 450 6 202 43 279 104
343 273 23 60 24 58 -56 65 -29 2 -55 6 -57 9 -6 6 32 139 42 149 7 7 36 3
160 -26 19 -4 23 1 32 47 12 59 61 398 61 422 0 74 -225 163 -508 201 -102 14
-330 18 -452 8z m110 -687 l0 -83 -101 -8 c-56 -4 -105 -3 -109 2 -9 10 -40
123 -40 146 0 17 -2 16 203 25 l47 2 0 -84z m388 68 c17 -3 32 -10 32 -16 0
-19 -32 -133 -39 -141 -5 -4 -54 -5 -110 -1 l-101 7 0 77 c0 42 2 79 6 82 5 6
158 0 212 -8z"/>
<path d="M8181 8380 l0 -100 89 0 90 0 0 -50 c0 -60 -3 -62 -106 -64 l-75 -1
3 -35 c3 -30 8 -37 38 -47 45 -15 158 -16 216 -2 l44 11 0 194 0 194 -149 0
-150 0 0 -100z"/>
<path d="M10705 8357 c-123 -167 -188 -274 -227 -370 -30 -75 -33 -91 -33
-192 0 -105 2 -114 33 -177 84 -171 266 -249 439 -188 144 51 244 197 245 361
1 159 -63 292 -281 587 -41 56 -78 102 -81 102 -3 0 -45 -56 -95 -123z"/>
<path d="M10235 8220 c-258 -25 -517 -159 -683 -353 -36 -42 -41 -76 -14 -100
32 -29 52 -19 129 58 40 41 108 98 150 126 149 101 273 142 481 161 l134 12
24 48 24 48 -33 0 c-19 0 -54 2 -78 4 -24 2 -84 0 -134 -4z"/>
<path d="M4532 8148 c-29 -29 -6 -64 63 -92 48 -20 93 -23 122 -8 12 7 51 12
88 12 57 0 69 3 91 25 20 20 23 28 14 45 -13 24 -38 25 -88 4 -54 -23 -156
-21 -212 5 -53 24 -62 25 -78 9z"/>
<path d="M6577 8133 c-4 -3 -7 -71 -7 -150 l0 -144 43 3 42 3 2 85 c1 47 2 93
2 103 1 15 13 17 101 17 l100 0 0 45 0 45 -138 0 c-76 0 -142 -3 -145 -7z"/>
<path d="M7985 8117 c-34 -26 7 -106 83 -164 54 -41 88 -43 104 -7 11 24 10
28 -12 45 -69 51 -83 65 -106 100 -26 42 -40 47 -69 26z"/>
<path d="M7820 8055 c-21 -26 25 -127 90 -194 46 -48 150 -102 181 -94 50 13
35 64 -26 87 -60 23 -131 94 -161 161 -20 43 -30 55 -49 55 -12 0 -28 -7 -35
-15z"/>
<path d="M4725 8008 c-27 -15 -42 -36 -56 -76 -16 -49 10 -115 55 -136 91 -43
186 10 186 104 0 43 -25 87 -60 105 -34 18 -97 19 -125 3z"/>
<path d="M7422 8004 c-76 -53 -63 -176 23 -204 106 -35 190 62 143 165 -23 51
-118 73 -166 39z"/>
<path d="M10260 7973 c-95 -15 -186 -40 -250 -70 -129 -59 -280 -190 -280
-243 0 -22 31 -50 56 -50 11 0 36 16 55 36 117 122 269 196 450 219 41 5 47 9
52 34 3 16 9 40 13 55 6 25 4 26 -32 25 -22 -1 -50 -3 -64 -6z"/>
<path d="M4410 7955 c-22 -27 -1 -54 73 -90 40 -20 89 -38 110 -42 l37 -6 -6
34 c-9 53 -12 59 -32 59 -11 0 -46 13 -78 30 -66 33 -86 36 -104 15z"/>
<path d="M4957 7953 c-8 -13 -6 -83 2 -88 4 -2 22 8 39 23 41 34 36 72 -9 72
-15 0 -30 -3 -32 -7z"/>
<path d="M4314 7755 c-16 -24 -16 -27 2 -46 23 -25 106 -69 131 -69 21 0 63
27 63 40 0 7 -162 100 -175 100 -2 0 -12 -11 -21 -25z"/>
<path d="M5015 7735 c-22 -14 -61 -32 -87 -41 -50 -16 -55 -25 -38 -69 12 -32
21 -30 137 26 84 40 106 66 83 94 -18 21 -49 18 -95 -10z"/>
<path d="M7162 7751 c-82 -10 -103 -31 -147 -145 -40 -105 -45 -150 -15 -166
42 -22 67 -3 96 73 44 118 43 117 127 116 l72 -1 -36 -15 c-35 -14 -38 -19
-125 -246 -48 -128 -119 -303 -156 -391 -37 -87 -68 -171 -68 -186 0 -58 85
-85 122 -39 10 11 58 101 108 199 85 169 93 181 164 247 80 74 72 59 152 282
3 11 9 6 20 -15 45 -86 74 -85 277 8 62 29 67 33 67 62 0 65 -32 70 -151 24
-45 -18 -84 -28 -86 -23 -2 6 -23 46 -46 90 -36 69 -48 83 -87 102 -52 26
-183 37 -288 24z"/>
<path d="M4627 7711 c-40 -21 -81 -52 -162 -124 -45 -41 -61 -66 -105 -163
-45 -100 -51 -119 -41 -140 6 -14 21 -28 33 -33 40 -15 67 10 103 90 43 99 68
142 85 147 10 4 12 -4 7 -34 -17 -98 -20 -240 -6 -266 8 -15 63 -82 124 -150
l109 -122 28 -143 c15 -79 32 -152 38 -163 22 -41 102 -40 133 2 20 27 20 28
3 120 -49 260 -47 253 -130 377 -43 63 -43 64 -15 317 25 229 21 251 -44 283
-54 26 -111 27 -160 2z"/>
<path d="M10243 7699 c-189 -32 -388 -197 -307 -256 27 -20 38 -17 96 30 29
24 69 53 88 64 40 24 170 63 212 63 32 0 32 4 17 66 -13 49 -12 49 -106 33z"/>
<path d="M4887 7454 c-7 -76 -7 -76 28 -116 18 -22 43 -47 55 -55 27 -19 65
-10 86 21 13 20 13 29 3 48 -15 28 -149 178 -159 178 -4 0 -10 -34 -13 -76z"/>
<path d="M7335 7169 c-30 -28 -55 -55 -55 -59 0 -4 29 -26 65 -49 36 -22 65
-45 65 -50 0 -5 -11 -56 -25 -113 -20 -82 -23 -108 -14 -130 23 -57 108 -57
130 -1 16 41 69 271 69 297 0 28 -81 100 -167 150 -8 4 -34 -13 -68 -45z"/>
<path d="M1518 7133 c-65 -77 -77 -163 -31 -236 14 -23 42 -62 60 -87 40 -52
39 -76 -3 -139 -32 -49 -29 -85 7 -89 21 -2 33 5 56 35 44 55 53 77 53 122 0
54 -9 74 -69 155 -60 80 -63 106 -21 162 16 21 30 46 30 55 0 38 -55 53 -82
22z"/>
<path d="M1840 7108 c-68 -93 -63 -150 20 -263 61 -82 64 -111 18 -179 -36
-55 -30 -81 17 -81 22 0 35 10 61 48 62 90 56 150 -26 257 -58 77 -64 115 -25
166 27 36 32 63 13 82 -22 22 -48 12 -78 -30z"/>
<path d="M2184 7118 c-76 -91 -72 -162 15 -278 58 -76 61 -93 23 -161 -38 -69
-39 -82 -8 -97 21 -9 28 -6 54 21 34 35 71 110 72 142 0 28 -42 109 -91 175
-45 61 -45 79 -3 141 27 39 30 59 12 77 -20 20 -45 13 -74 -20z"/>
<path d="M10154 7124 c-47 -23 -75 -57 -95 -116 l-18 -53 -140 -5 -141 -5 -32
-33 -33 -32 -2 -150 -2 -150 654 0 655 0 0 150 0 150 -29 32 -29 33 -144 5
-143 5 -15 47 c-20 61 -50 101 -93 121 -49 24 -346 24 -393 1z m324 -283 c31
-1 33 -3 30 -33 -3 -28 -8 -33 -36 -39 -51 -10 -272 -3 -284 9 -17 17 -1 60
25 64 19 3 65 2 265 -1z"/>
<path d="M4526 7089 c-31 -104 -106 -403 -106 -426 0 -46 28 -75 74 -75 65 0
73 15 146 289 l22 83 -51 58 c-67 78 -80 88 -85 71z"/>
<path d="M6570 6726 l0 -144 33 -6 c19 -3 84 -6 145 -5 l112 1 0 44 0 44 -100
0 -100 0 -1 28 c0 15 0 53 1 84 2 86 -4 98 -51 98 l-39 0 0 -144z"/>
<path d="M8057 6864 c-4 -4 -7 -52 -7 -106 l0 -98 -100 0 -100 0 0 -40 0 -40
145 0 146 0 -3 143 -3 142 -35 3 c-20 2 -39 0 -43 -4z"/>
<path d="M1765 5659 c-322 -45 -615 -267 -742 -560 -186 -431 -39 -927 352
-1183 103 -68 205 -109 332 -135 129 -27 247 -27 376 0 358 72 638 338 738
699 32 118 33 356 1 472 -72 265 -259 494 -502 618 -156 79 -376 114 -555 89z
m205 -311 c69 -48 70 -52 70 -445 l0 -353 38 -38 c108 -108 106 -270 -4 -372
-59 -54 -99 -70 -176 -70 -108 1 -186 49 -235 145 -49 96 -26 227 52 300 l34
33 4 359 c3 357 3 359 26 397 41 66 129 86 191 44z m488 -106 c7 -5 11 -22 8
-43 l-3 -34 -152 -3 -151 -3 0 39 c0 21 3 42 7 45 9 10 275 8 291 -1z m-125
-182 c5 0 7 -17 5 -37 l-3 -38 -87 -3 -88 -3 0 39 c0 21 2 41 4 43 3 3 86 3
169 -1z m135 -227 l-3 -38 -152 -3 -153 -3 0 41 0 40 156 0 155 0 -3 -37z"/>
<path d="M1836 4749 c-3 -34 -6 -112 -6 -172 l0 -111 -34 -31 c-48 -44 -63
-103 -41 -162 25 -64 74 -98 141 -97 140 1 201 164 98 260 l-34 32 -2 169 -3
168 -56 3 -56 3 -7 -62z"/>
<path d="M7368 5655 c-381 -64 -688 -357 -775 -736 -27 -119 -22 -320 10 -441
45 -171 113 -291 237 -422 198 -207 456 -310 737 -293 358 22 667 233 818 559
61 132 79 223 79 393 1 181 -18 266 -94 420 -184 378 -597 590 -1012 520z
m-28 -195 c0 -20 -6 -33 -17 -37 -230 -79 -361 -189 -460 -388 -17 -33 -36
-77 -42 -97 -11 -33 -17 -38 -42 -38 -36 0 -37 9 0 98 93 231 258 390 486 473
68 25 75 24 75 -11z m460 5 c205 -70 386 -248 473 -467 35 -86 34 -98 -1 -98
-26 0 -31 6 -61 84 -76 195 -215 334 -418 416 -76 31 -83 36 -83 62 0 15 4 28
8 28 5 0 41 -11 82 -25z m-462 -295 l152 0 0 -30 0 -30 -225 0 -225 0 17 26
c21 33 49 45 93 39 19 -3 104 -5 188 -5z m652 -27 c11 -14 17 -29 13 -32 -4
-3 -101 -5 -215 -3 l-208 3 0 30 0 29 194 0 195 0 21 -27z m-727 -132 l227 -1
0 -29 c0 -26 -4 -29 -42 -34 -24 -3 -86 -4 -138 -3 -52 1 -155 3 -227 4 -111
2 -133 5 -133 17 0 24 35 52 61 49 13 -1 126 -3 252 -3z m835 -30 c6 -16 8
-32 5 -35 -8 -8 -379 -6 -462 3 -53 5 -65 9 -67 25 -2 11 -1 23 2 28 3 4 119
8 259 8 l253 0 10 -29z m-610 -163 l-3 -33 -288 1 c-158 1 -291 4 -294 7 -3 3
-3 18 1 32 l6 25 291 0 290 0 -3 -32z m660 -5 l3 -33 -270 0 c-148 0 -276 3
-285 6 -10 4 -16 18 -16 35 l0 29 283 -2 282 -3 3 -32z m-658 -152 c0 -26 -4
-29 -42 -35 -48 -8 -498 -7 -528 1 -14 4 -20 14 -20 34 l0 29 295 0 295 0 0
-29z m658 -3 l-3 -33 -260 -3 c-143 -2 -270 0 -282 3 -18 4 -23 13 -23 35 l0
30 286 0 285 0 -3 -32z m-1323 -173 c33 -113 137 -265 238 -346 57 -45 167
-105 240 -128 32 -11 37 -17 37 -43 0 -28 -2 -29 -32 -23 -56 12 -151 54 -208
92 -159 105 -263 237 -331 418 -23 61 -19 78 18 73 21 -2 28 -11 38 -43z
m1471 8 c-12 -65 -92 -215 -154 -288 -57 -68 -120 -122 -210 -180 -50 -33
-202 -96 -214 -89 -4 3 -8 18 -8 34 0 26 5 30 63 49 98 33 185 89 272 176 87
87 143 174 176 272 19 59 23 63 51 63 29 0 30 -1 24 -37z m-668 -560 l-3 -48
-100 0 -100 0 -3 48 -3 47 106 0 106 0 -3 -47z"/>
<path d="M9655 5536 c-6 -26 -125 -805 -132 -862 l-5 -42 53 -7 c30 -3 79 -10
109 -16 30 -5 132 -20 225 -35 94 -14 190 -29 215 -33 l45 -6 3 -107 c3 -101
2 -107 -24 -137 l-26 -31 -219 0 c-193 0 -219 2 -219 16 0 8 -13 29 -29 45
-23 23 -39 29 -70 29 l-41 0 0 75 0 75 -75 0 -75 0 0 -316 0 -316 73 5 72 4 3
72 c3 63 5 71 23 71 37 0 89 29 107 60 l17 30 220 0 c236 1 266 6 329 54 57
43 79 103 84 228 3 60 7 110 11 112 3 2 31 0 61 -5 198 -32 443 -69 458 -69
16 0 22 22 45 173 69 445 66 430 90 455 12 13 75 71 140 129 64 57 117 108
117 112 0 10 -42 17 -1073 177 -196 30 -391 61 -432 68 -74 13 -75 13 -80 -8z
m315 -392 c212 -32 200 -28 200 -56 -1 -52 -4 -53 -196 -24 -238 36 -224 32
-224 70 0 38 5 45 28 40 9 -2 96 -15 192 -30z m788 -281 c52 -71 -53 -156
-107 -87 -28 35 -26 59 5 91 20 20 31 24 57 19 18 -3 38 -14 45 -23z"/>
<path d="M3760 4715 l0 -535 100 0 c100 0 100 0 138 34 l37 34 0 467 0 467
-37 34 c-38 34 -38 34 -138 34 l-100 0 0 -535z"/>
<path d="M4939 5145 c-20 -49 -119 -405 -119 -430 0 -38 118 -438 132 -446 15
-9 564 -6 573 3 10 10 135 417 135 440 0 10 -16 71 -35 136 -19 64 -47 160
-62 212 l-28 95 -294 5 c-287 5 -294 5 -302 -15z m498 -87 c-3 -13 -23 -84
-45 -158 l-39 -135 -221 -3 -221 -2 20 67 c10 38 31 110 45 161 l27 92 220 0
219 0 -5 -22z m106 -219 l35 -121 -29 -106 c-40 -145 -39 -142 -48 -142 -8 0
-71 216 -71 245 0 28 62 245 70 245 4 0 23 -54 43 -121z m-151 -304 c20 -71
40 -142 43 -157 l7 -28 -220 0 -219 0 -42 145 c-22 79 -41 151 -41 160 0 14
25 15 217 13 l217 -3 38 -130z"/>
<path d="M4505 5083 c-20 -20 -17 -37 26 -158 30 -82 33 -101 33 -210 1 -112
-2 -126 -32 -210 -19 -49 -36 -104 -39 -121 -10 -64 59 -71 95 -9 68 114 98
325 68 474 -40 196 -99 287 -151 234z"/>
<path d="M11031 4913 c-40 -235 -57 -359 -52 -365 7 -7 183 -38 221 -38 31 0
25 -22 65 230 14 85 25 165 25 176 0 19 -10 23 -102 38 -57 9 -113 19 -124 22
-20 5 -23 0 -33 -63z"/>
<path d="M4336 4941 c-17 -19 -17 -23 4 -86 30 -90 30 -189 -1 -283 -23 -71
-23 -72 -3 -87 46 -35 75 -12 104 83 35 111 26 265 -21 354 -22 43 -55 50 -83
19z"/>
<path d="M4117 4873 c-4 -3 -7 -78 -7 -165 0 -174 -1 -171 63 -144 71 29 119
125 97 192 -16 46 -57 94 -97 110 -36 16 -47 17 -56 7z"/>
<path d="M10195 2740 c-207 -162 -382 -255 -592 -313 l-113 -32 0 -63 c0 -64
23 -237 41 -307 82 -319 249 -616 474 -839 117 -116 307 -243 348 -232 13 3
62 31 109 63 358 240 612 627 703 1071 15 76 35 290 28 303 -1 4 -35 15 -75
24 -202 49 -393 147 -612 312 -91 68 -166 123 -168 123 -1 -1 -66 -50 -143
-110z m177 -453 c25 -24 105 -87 111 -87 3 0 7 10 9 23 3 19 9 22 53 22 l50 0
5 -76 5 -77 80 -64 c111 -89 113 -93 89 -125 -35 -47 -50 -51 -82 -20 -50 48
-52 42 -52 -143 l0 -170 -297 2 -298 3 -3 173 -2 173 -39 -30 c-21 -17 -43
-31 -49 -31 -14 0 -64 69 -57 79 3 6 78 70 167 143 89 73 184 152 212 175 53
45 76 51 98 30z"/>
<path d="M940 2400 l0 -210 85 0 85 0 0 125 0 125 125 0 125 0 0 85 0 85 -210
0 -210 0 0 -210z"/>
<path d="M2434 2597 c-3 -8 -4 -45 -2 -83 l3 -69 123 -3 122 -3 0 -124 0 -125
85 0 85 0 0 210 0 210 -205 0 c-163 0 -207 -3 -211 -13z"/>
<path d="M3794 2516 l-34 -34 0 -576 c0 -392 3 -583 11 -599 6 -13 25 -32 42
-43 31 -18 63 -19 876 -20 465 -1 860 2 879 7 19 4 47 20 63 35 l29 28 0 587
0 587 -31 31 -31 31 -885 0 -885 0 -34 -34z m660 -160 c14 -56 14 -56 -240
-56 l-234 0 0 33 c0 19 3 37 7 40 3 4 109 7 234 7 l227 0 6 -24z m996 -160 c0
-183 0 -184 -22 -187 -13 -2 -176 -4 -363 -4 l-340 0 -3 188 -2 187 365 0 365
0 0 -184z m-1037 18 c28 -5 39 -12 43 -30 13 -51 0 -54 -242 -54 -214 0 -224
1 -234 20 -15 28 -4 58 23 63 36 7 369 7 410 1z m14 -170 c27 -8 35 -27 23
-59 l-10 -25 -227 2 -228 3 -3 37 c-2 28 1 37 15 41 27 7 404 8 430 1z m23
-179 c21 -25 4 -62 -31 -69 -53 -10 -409 -7 -430 4 -21 12 -24 32 -9 61 10 18
23 19 234 19 186 0 226 -3 236 -15z m420 -25 l0 -40 -75 0 -75 0 0 40 0 40 75
0 75 0 0 -40z m290 0 l0 -40 -75 0 -75 0 0 40 0 40 75 0 75 0 0 -40z m290 0
l0 -40 -75 0 -75 0 0 40 0 40 75 0 75 0 0 -40z m-582 -197 l3 -43 -75 0 -76 0
0 38 c0 21 3 42 7 46 4 4 37 6 73 4 l65 -3 3 -42z m290 0 l3 -43 -75 0 -76 0
0 38 c0 21 3 42 7 46 4 4 37 6 73 4 l65 -3 3 -42z m290 0 l3 -43 -75 0 -76 0
0 38 c0 21 3 42 7 46 4 4 37 6 73 4 l65 -3 3 -42z m-1148 -38 c20 -21 25 -35
25 -76 0 -45 -4 -54 -33 -80 -57 -51 -143 -33 -177 37 -14 30 -15 43 -6 74 26
88 125 111 191 45z m568 -157 l-3 -43 -72 -3 -73 -3 0 46 0 45 76 0 75 0 -3
-42z m290 0 l-3 -43 -72 -3 -73 -3 0 46 0 45 76 0 75 0 -3 -42z m290 0 l-3
-43 -72 -3 -73 -3 0 46 0 45 76 0 75 0 -3 -42z"/>
<path d="M7157 2462 c-15 -17 -17 -70 -17 -561 0 -355 4 -549 10 -562 10 -18
25 -19 374 -19 279 0 366 3 374 13 6 8 11 208 13 563 3 456 2 554 -10 567 -12
15 -50 17 -371 17 -333 0 -358 -1 -373 -18z m506 -743 c28 -13 57 -58 57 -89
0 -34 -28 -78 -60 -95 -43 -22 -237 -21 -270 2 -40 27 -49 45 -50 91 0 35 6
49 29 73 29 29 30 29 150 29 66 0 131 -5 144 -11z"/>
<path d="M1770 2335 c-98 -18 -200 -60 -287 -118 -110 -73 -256 -236 -316
-354 l-17 -31 93 -89 c215 -205 410 -289 667 -286 141 2 238 25 365 88 101 50
164 95 285 206 95 87 94 80 21 191 -146 223 -354 365 -586 398 -89 12 -132 11
-225 -5z m345 -178 c81 -33 178 -102 249 -178 94 -99 98 -111 55 -155 -124
-130 -342 -224 -518 -224 -84 0 -209 27 -286 61 -69 30 -170 97 -230 151 l-50
45 30 44 c47 67 157 171 226 212 35 20 64 35 66 33 2 -2 -6 -28 -17 -57 -87
-219 99 -442 320 -385 76 20 123 51 166 112 40 56 54 100 54 169 0 69 -13 87
-34 47 -20 -39 -44 -52 -94 -52 -76 0 -127 74 -99 143 29 69 61 75 162 34z"/>
<path d="M6660 2258 c-11 -18 -34 -76 -52 -128 -28 -87 -31 -107 -31 -225 -1
-140 12 -207 61 -322 32 -75 59 -94 97 -69 14 9 25 21 25 27 0 6 -16 53 -35
105 -71 190 -65 339 21 565 21 56 10 79 -37 79 -22 0 -34 -8 -49 -32z"/>
<path d="M8306 2267 c-15 -22 -14 -28 15 -98 34 -83 59 -196 59 -270 0 -72
-27 -193 -62 -276 -35 -86 -29 -113 27 -113 31 0 37 5 60 49 64 127 90 329 62
478 -9 45 -31 119 -49 165 -31 78 -35 83 -65 86 -24 2 -35 -2 -47 -21z"/>
<path d="M6872 2133 c-29 -26 -53 -107 -59 -203 -6 -95 6 -171 38 -237 17 -35
26 -43 49 -43 55 0 59 26 25 150 -19 70 -19 132 1 200 27 95 29 122 8 137 -24
17 -38 16 -62 -4z"/>
<path d="M8118 2139 c-23 -13 -22 -40 2 -109 13 -36 19 -81 19 -130 0 -49 -6
-94 -19 -130 -31 -89 -23 -120 32 -120 21 0 31 8 44 31 52 101 62 259 24 373
-30 92 -55 113 -102 85z"/>
<path d="M944 1601 c-2 -2 -4 -96 -4 -208 l0 -203 204 0 204 0 7 64 c4 35 5
72 3 82 -3 19 -13 20 -205 23 l-42 1 -3 123 -3 122 -78 0 c-43 0 -80 -2 -83
-4z"/>
<path d="M2686 1603 c-3 -3 -6 -60 -6 -125 l0 -118 -32 -2 c-18 -1 -73 -2
-123 -2 l-89 -1 -3 -83 -4 -82 208 2 208 3 3 203 2 202 -57 1 c-32 0 -67 2
-79 4 -12 3 -24 2 -28 -2z"/>
</g>
</svg>
