<?xml version="1.0" standalone="no"?>
<!DOCTYPE svg PUBLIC "-//W3C//DTD SVG 20010904//EN"
 "http://www.w3.org/TR/2001/REC-SVG-20010904/DTD/svg10.dtd">
<svg version="1.0" xmlns="http://www.w3.org/2000/svg"
 width="1024.000000pt" height="512.000000pt" viewBox="0 0 1024.000000 512.000000"
 preserveAspectRatio="xMidYMid meet">

<g transform="translate(0.000000,512.000000) scale(0.100000,-0.100000)"
fill="#000000" stroke="none">
<path d="M5120 2560 l0 -2560 2560 0 2560 0 0 2560 0 2560 -2560 0 -2560 0 0
-2560z m2840 1745 c110 -24 267 -78 357 -124 200 -100 400 -271 526 -448 117
-165 208 -378 244 -574 26 -141 23 -402 -5 -536 -29 -135 -72 -255 -138 -383
-134 -262 -374 -494 -646 -623 l-88 -42 0 -52 c0 -40 -4 -53 -15 -53 -11 0
-15 11 -15 41 0 33 -3 40 -17 37 -13 -2 -19 -14 -21 -41 -4 -50 -32 -52 -32
-2 0 38 0 38 -24 29 -10 -4 -16 -18 -16 -35 0 -19 -5 -29 -15 -29 -9 0 -15 9
-15 25 0 14 -4 25 -10 25 -5 0 -10 -11 -10 -25 0 -16 -6 -25 -15 -25 -8 0 -15
6 -15 14 0 8 -4 17 -9 20 -14 9 -41 -4 -41 -20 0 -8 -6 -14 -14 -14 -16 0 -29
27 -19 42 3 7 1 8 -6 4 -6 -4 -9 -16 -6 -27 5 -15 1 -19 -14 -19 -12 0 -21 7
-21 15 0 20 -56 20 -64 0 -3 -8 -13 -15 -22 -15 -19 0 -15 22 16 94 21 50 57
64 67 26 3 -11 10 -20 15 -20 5 0 7 -4 4 -9 -9 -14 4 -40 17 -35 15 5 20 64 6
64 -6 0 -4 7 5 15 8 8 28 15 44 15 36 0 210 59 302 102 244 115 461 328 589
578 153 299 189 615 105 936 -80 309 -288 596 -556 767 -546 347 -1268 247
-1687 -235 -400 -459 -439 -1102 -98 -1608 27 -41 63 -90 79 -108 24 -28 28
-41 28 -92 0 -56 1 -60 24 -60 13 0 35 -9 50 -21 36 -29 37 -89 0 -126 -22
-22 -32 -25 -67 -20 -67 9 -94 59 -65 122 6 14 15 25 21 25 5 0 -14 25 -41 55
-181 198 -297 424 -354 688 -29 135 -31 395 -5 537 92 499 452 920 928 1088
76 27 225 63 314 76 67 10 372 -3 445 -19z m-28 -156 c513 -103 914 -516 1003
-1033 31 -184 16 -418 -41 -598 -129 -409 -476 -739 -888 -843 -83 -21 -92
-22 -102 -6 -15 22 -25 91 -13 91 5 0 9 5 9 11 0 5 -5 7 -11 4 -6 -4 -17 1
-24 11 -17 22 -19 38 -5 29 6 -3 10 2 10 11 0 15 2 16 13 5 10 -11 10 -14 0
-18 -15 -5 -17 -23 -4 -23 22 0 21 40 0 61 -16 16 -21 18 -16 6 3 -9 2 -17 -3
-17 -6 0 -10 7 -10 15 0 42 -143 49 -225 11 -28 -12 -64 -37 -80 -54 -34 -36
-75 -109 -75 -134 0 -9 -4 -19 -8 -22 -12 -7 -129 20 -208 48 -39 14 -86 26
-105 26 -25 0 -43 9 -71 37 -34 33 -38 35 -38 16 0 -12 5 -25 10 -28 6 -4 8
-10 5 -15 -3 -5 0 -12 6 -16 8 -5 9 -3 4 6 -6 9 -4 12 6 7 115 -49 253 -99
313 -112 58 -13 76 -21 76 -34 0 -14 7 -16 35 -13 39 5 65 -11 65 -39 0 -16
-8 -19 -41 -19 -27 0 -38 -4 -33 -11 3 -6 19 -9 35 -5 31 6 50 -11 28 -25 -22
-14 -75 -10 -89 6 -16 19 -30 19 -30 0 0 -8 -7 -15 -15 -15 -8 0 -15 9 -15 20
0 11 -7 20 -15 20 -8 0 -15 -4 -15 -10 0 -5 5 -10 10 -10 6 0 10 -4 10 -9 0
-6 -26 -9 -57 -8 -56 2 -58 3 -58 29 -1 15 -4 30 -8 34 -4 4 -7 -9 -7 -29 0
-52 -28 -51 -32 1 -2 29 -7 37 -23 37 -16 0 -21 -8 -23 -37 -2 -25 -8 -38 -18
-38 -10 0 -14 14 -14 57 l0 58 -26 -27 -27 -26 23 -29 c19 -24 20 -28 6 -31
-9 -2 -25 7 -36 20 l-20 23 -6 -22 c-3 -13 -13 -23 -21 -23 -11 0 -14 16 -12
81 2 77 1 82 -23 97 -34 20 -54 52 -32 52 8 0 12 5 9 10 -3 6 0 10 7 11 10 0
10 2 0 6 -6 2 -9 10 -5 16 13 21 14 79 2 93 -7 8 -20 12 -30 9 -9 -3 -20 -1
-24 5 -9 15 -31 12 -49 -6 -39 -38 -1 -85 50 -62 22 10 28 10 39 -5 11 -16 10
-21 -8 -40 -12 -12 -23 -19 -25 -14 -2 4 -18 7 -36 7 -56 0 -96 57 -82 114 4
16 20 31 46 43 45 21 47 30 21 104 -39 111 -36 109 -108 109 -35 0 -63 -4 -63
-10 0 -20 -53 37 -101 108 -138 207 -209 444 -209 702 0 286 83 538 254 767
293 392 785 579 1268 482z m-1608 -2195 c7 -19 -10 -44 -31 -44 -17 0 -27 24
-19 45 7 20 42 19 50 -1z m151 3 c15 -12 16 -15 4 -23 -8 -5 -30 -9 -49 -9
-53 0 -50 -26 5 -53 51 -25 70 -58 55 -96 -17 -46 -75 -59 -132 -30 -28 14
-29 17 -15 31 13 14 20 14 47 3 27 -11 34 -11 47 3 13 13 14 19 4 31 -7 8 -23
18 -34 22 -34 10 -67 45 -67 70 0 49 90 83 135 51z m105 -37 c0 -15 7 -20 25
-20 18 0 25 -5 25 -20 0 -15 -7 -20 -26 -20 -23 0 -25 -3 -22 -42 2 -36 7 -44
26 -46 35 -5 30 -42 -6 -42 -44 0 -62 19 -69 78 -5 42 -9 52 -24 52 -12 0 -19
7 -19 20 0 13 7 20 20 20 13 0 20 7 20 20 0 15 7 20 25 20 18 0 25 -5 25 -20z
m-260 -106 c0 -83 -1 -85 -22 -82 -21 3 -23 9 -26 72 -4 82 1 96 28 96 19 0
20 -6 20 -86z m1450 56 c0 -5 -7 -7 -15 -4 -8 4 -15 8 -15 10 0 2 7 4 15 4 8
0 15 -4 15 -10z m125 -208 c-3 -3 -11 0 -18 7 -9 10 -8 11 6 5 10 -3 15 -9 12
-12z m-1145 -117 l0 -75 -50 0 c-44 0 -52 3 -62 25 -8 18 -9 34 -2 53 8 23 15
27 47 27 27 0 36 4 32 13 -7 18 3 32 21 32 11 0 14 -16 14 -75z m50 60 c0 -8
-7 -15 -15 -15 -8 0 -15 7 -15 15 0 8 7 15 15 15 8 0 15 -7 15 -15z m890 -60
l0 -75 -44 0 c-50 0 -76 19 -76 55 0 32 25 55 61 55 22 0 29 5 29 20 0 11 7
20 15 20 12 0 15 -15 15 -75z m780 0 l0 -75 -42 0 c-68 0 -96 40 -62 89 12 17
24 22 45 19 25 -4 29 -1 29 19 0 14 6 23 15 23 12 0 15 -15 15 -75z m-2079 54
c30 -16 12 -30 -31 -23 -33 5 -39 3 -45 -15 -10 -32 3 -61 29 -61 12 0 26 4
32 10 6 6 15 6 24 -1 13 -8 12 -11 -4 -24 -26 -20 -75 -19 -98 2 -23 20 -24
80 -1 105 18 20 64 24 94 7z m469 -3 c0 -8 10 -17 23 -19 l22 -4 -22 -8 c-31
-10 -32 -60 -3 -68 27 -7 25 -27 -3 -27 -32 0 -47 18 -47 56 0 18 -6 35 -12
38 -10 5 -10 7 0 12 6 3 12 12 12 20 0 8 7 14 15 14 8 0 15 -6 15 -14z m-360
-27 c0 -5 -8 -13 -17 -16 -24 -9 -33 -23 -33 -55 0 -18 -5 -28 -15 -28 -11 0
-15 13 -15 54 l0 54 40 0 c22 0 40 -4 40 -9z m102 -6 c30 -27 22 -43 -22 -43
-22 0 -40 -4 -40 -9 0 -14 23 -19 42 -10 20 11 36 -7 20 -23 -19 -19 -75 -5
-91 23 -13 24 -13 29 2 53 20 30 61 35 89 9z m198 -38 c0 -42 -3 -55 -15 -55
-12 0 -15 13 -15 55 0 42 3 55 15 55 12 0 15 -13 15 -55z m143 40 c1 -5 -6
-11 -15 -13 -11 -2 -18 3 -18 13 0 17 30 18 33 0z m1387 -4 c17 -33 11 -41
-30 -41 -22 0 -40 -4 -40 -9 0 -14 23 -19 42 -10 18 10 33 -4 23 -21 -10 -15
-71 -12 -85 5 -7 8 -12 26 -12 40 0 36 20 55 58 55 23 0 37 -6 44 -19z m-1387
-76 c1 -5 -6 -11 -15 -13 -11 -2 -18 3 -18 13 0 17 30 18 33 0z m370 -325 c4
0 7 -9 7 -20 0 -18 -7 -20 -70 -20 l-70 0 0 -35 0 -35 65 0 c58 0 65 -2 65
-20 0 -16 -8 -19 -62 -22 l-63 -3 -3 -48 c-3 -43 -5 -48 -25 -45 -21 3 -22 7
-22 123 0 66 3 122 6 125 6 4 111 4 172 0z m85 -98 l3 -101 62 -3 c54 -3 62
-5 62 -23 0 -18 -8 -20 -87 -23 l-88 -3 0 124 c0 68 3 126 6 129 3 3 13 5 22
4 14 -2 17 -18 20 -104z m300 92 c8 -8 65 -131 99 -211 13 -32 13 -33 -12 -33
-17 0 -29 8 -37 25 -10 23 -16 25 -78 25 -62 0 -68 -2 -78 -25 -11 -24 -52
-36 -52 -15 0 9 69 170 95 219 14 28 46 35 63 15z m204 -16 c10 -13 26 -35 35
-50 10 -16 20 -28 23 -28 3 0 13 12 23 28 32 53 53 73 80 77 l27 5 0 -130 c0
-131 0 -131 -22 -128 -22 3 -23 6 -20 86 2 45 0 82 -5 82 -5 0 -24 -20 -42
-45 -18 -25 -36 -45 -41 -45 -5 0 -23 20 -41 45 -18 25 -37 45 -42 45 -5 0 -8
-30 -7 -67 3 -99 2 -103 -20 -103 -19 0 -20 7 -20 130 l0 130 27 -5 c15 -2 36
-15 45 -27z m344 22 c67 0 74 -2 74 -20 0 -18 -7 -20 -70 -20 l-70 0 0 -30 0
-30 70 0 c63 0 70 -2 70 -20 0 -17 -8 -19 -67 -22 -66 -3 -68 -4 -71 -30 l-3
-28 70 0 c69 0 71 -1 71 -25 0 -25 -1 -25 -90 -25 l-90 0 0 131 c0 115 2 130
16 125 9 -3 49 -6 90 -6z m-1289 -456 c62 -46 67 -143 11 -196 -28 -26 -36
-28 -109 -28 l-79 0 0 118 c0 65 3 122 8 126 4 4 37 6 74 4 48 -3 75 -10 95
-24z m273 1 c0 -24 -2 -25 -70 -25 l-70 0 0 -30 0 -30 65 0 c58 0 65 -2 65
-20 0 -18 -7 -20 -65 -20 l-65 0 0 -30 0 -30 70 0 c63 0 70 -2 70 -20 0 -19
-7 -20 -95 -20 l-95 0 0 125 0 125 95 0 c95 0 95 0 95 -25z m240 0 c0 -22 -4
-25 -40 -25 l-40 0 0 -100 0 -100 -25 0 c-25 0 -25 0 -25 99 l0 100 -37 3
c-31 2 -39 7 -41 26 -3 22 -2 22 102 22 l106 0 0 -25z m215 0 c0 -18 -8 -21
-70 -25 -67 -5 -70 -6 -70 -30 0 -24 3 -25 68 -28 58 -3 67 -5 67 -22 0 -17
-9 -19 -67 -22 -65 -3 -68 -4 -68 -28 0 -24 3 -25 73 -28 64 -3 72 -5 72 -22
0 -18 -7 -20 -95 -20 l-95 0 0 125 0 126 93 -3 c84 -3 92 -5 92 -23z m227 9
c27 -14 29 -17 15 -31 -12 -13 -21 -13 -50 -4 -88 30 -153 -71 -90 -141 19
-21 92 -25 111 -6 10 10 16 8 30 -6 16 -16 16 -18 -2 -31 -52 -39 -151 -25
-190 27 -27 38 -27 118 1 156 39 52 113 68 175 36z m246 -6 c-2 -19 -10 -24
-40 -26 l-38 -3 0 -100 c0 -99 0 -99 -25 -99 l-25 0 0 100 0 100 -40 0 c-36 0
-40 3 -40 25 l0 25 106 0 c104 0 105 0 102 -22z m212 7 c83 -43 79 -189 -6
-230 -60 -28 -137 -10 -170 40 -25 38 -24 117 3 153 38 52 113 68 173 37z
m260 2 c63 -32 62 -126 -2 -150 -9 -3 1 -19 27 -46 l39 -41 -30 0 c-22 0 -41
11 -69 40 -21 22 -47 40 -57 40 -14 0 -18 -8 -18 -40 0 -36 -2 -40 -25 -40
l-25 0 0 125 0 125 68 0 c37 0 78 -6 92 -13z"/>
<path d="M6692 1834 c-20 -36 13 -73 51 -58 21 8 26 24 16 52 -10 26 -53 30
-67 6z"/>
<path d="M7816 1545 c-3 -9 0 -15 9 -15 16 0 20 16 6 24 -5 3 -11 -1 -15 -9z"/>
<path d="M7510 3975 c0 -19 35 -68 67 -92 31 -24 46 -28 103 -28 57 0 72 4
103 28 32 24 67 73 67 92 0 3 -76 5 -170 5 -93 0 -170 -2 -170 -5z"/>
<path d="M7423 3843 c-27 -10 -13 -51 29 -87 123 -106 333 -106 456 0 27 23
42 44 42 59 0 32 -29 40 -60 16 -69 -56 -112 -74 -184 -79 -91 -5 -141 9 -207
58 -30 22 -56 40 -59 39 -3 0 -11 -3 -17 -6z"/>
<path d="M7285 3749 c-14 -22 7 -56 62 -96 193 -142 445 -147 651 -13 72 46
101 83 82 105 -19 23 -38 18 -84 -20 -94 -77 -249 -123 -365 -109 -103 13
-225 68 -276 124 -19 21 -60 27 -70 9z"/>
<path d="M7197 3669 c-31 -18 -19 -47 36 -88 120 -91 299 -151 447 -151 148 0
327 60 447 151 56 42 67 71 34 88 -14 8 -30 2 -79 -33 -122 -85 -271 -136
-402 -136 -127 0 -289 54 -399 134 -63 45 -64 46 -84 35z"/>
<path d="M7480 3221 c20 -39 50 -187 50 -252 0 -108 -32 -207 -135 -416 -115
-234 -135 -290 -135 -381 0 -80 16 -134 60 -197 31 -45 108 -125 120 -125 4 0
1 30 -6 68 -17 86 -19 203 -5 230 42 78 183 47 322 -70 77 -66 137 -150 154
-213 l11 -46 52 46 c58 53 106 141 122 224 14 77 12 233 -4 326 -17 96 -47
205 -56 205 -3 0 -19 -27 -35 -60 -26 -54 -89 -130 -99 -119 -2 2 3 36 11 74
27 129 0 278 -74 404 -51 86 -170 207 -267 270 -85 55 -102 62 -86 32z"/>
<path d="M7060 1573 l0 -36 23 21 c13 12 30 22 38 22 17 1 -30 29 -48 30 -8 0
-13 -14 -13 -37z"/>
<path d="M7489 1549 c-10 -6 -7 -9 14 -9 29 0 35 5 14 13 -8 3 -20 1 -28 -4z"/>
<path d="M7310 1510 c-8 -5 -11 -12 -8 -16 10 -9 38 3 38 16 0 12 -10 13 -30
0z"/>
<path d="M6660 1526 c0 -13 6 -26 13 -29 22 -7 37 4 37 29 0 19 -5 24 -25 24
-20 0 -25 -5 -25 -24z"/>
<path d="M7610 1525 c0 -22 4 -26 23 -23 14 2 22 10 22 23 0 13 -8 21 -22 23
-19 3 -23 -1 -23 -23z"/>
<path d="M8387 1537 c-8 -21 8 -39 29 -35 27 5 25 42 -2 46 -12 2 -24 -3 -27
-11z"/>
<path d="M6545 1550 c-4 -6 6 -10 22 -10 22 0 25 2 13 10 -19 12 -27 12 -35 0z"/>
<path d="M8265 1550 c-4 -6 5 -10 20 -10 15 0 24 4 20 10 -3 6 -12 10 -20 10
-8 0 -17 -4 -20 -10z"/>
<path d="M7648 1057 c-10 -23 -18 -45 -18 -47 0 -3 18 -4 41 -2 33 3 39 7 34
21 -4 9 -12 28 -17 44 -5 15 -13 27 -16 27 -4 0 -15 -19 -24 -43z"/>
<path d="M6830 599 l0 -82 47 6 c78 8 108 73 62 131 -17 21 -29 26 -65 26
l-44 0 0 -81z"/>
<path d="M8263 678 c-12 -6 -27 -25 -33 -43 -21 -64 12 -117 74 -117 44 0 55
7 71 46 34 80 -36 151 -112 114z"/>
<path d="M8520 640 c0 -40 0 -40 39 -40 23 0 46 7 55 16 35 34 11 64 -51 64
l-43 0 0 -40z"/>
<path d="M2311 4299 c-579 -75 -1059 -509 -1192 -1077 -32 -140 -44 -305 -31
-440 35 -356 176 -650 429 -893 109 -105 208 -176 337 -241 204 -103 405 -150
636 -150 537 0 1020 297 1259 777 60 118 92 212 122 355 29 137 32 378 6 520
-100 543 -506 979 -1037 1115 -169 43 -364 56 -529 34z m289 -128 c0 -38 -47
-71 -100 -71 -31 0 -90 45 -90 69 0 7 34 11 95 11 52 0 95 -4 95 -9z m-210
-85 c6 -8 31 -22 55 -32 56 -21 124 -12 164 22 31 26 46 30 56 13 18 -29 -82
-88 -150 -89 -81 0 -175 49 -162 84 8 20 21 20 37 2z m-56 -61 c53 -40 106
-58 176 -58 70 0 120 17 173 57 41 31 57 33 57 6 0 -41 -145 -110 -230 -110
-87 0 -230 69 -230 110 0 26 15 25 54 -5z m-61 -45 c48 -38 138 -72 201 -77
102 -9 187 18 288 89 14 10 20 10 29 1 19 -19 -13 -48 -99 -90 -64 -32 -85
-37 -160 -41 -102 -4 -182 16 -262 68 -47 30 -59 48 -43 63 10 11 19 8 46 -13z
m242 -322 c97 -90 142 -204 125 -313 -4 -27 -6 -52 -4 -54 7 -7 30 21 52 62
23 44 27 41 47 -44 33 -142 12 -281 -52 -345 l-36 -36 -13 37 c-26 76 -148
175 -215 175 -54 0 -62 -16 -57 -110 3 -44 1 -80 -3 -80 -16 0 -79 94 -90 133
-16 60 -3 109 73 269 53 113 71 161 75 206 5 54 -5 129 -23 176 -7 19 -7 19
26 0 18 -10 61 -45 95 -76z m1193 -850 c-4 -10 -259 -14 -1221 -16 -1078 -2
-1217 0 -1217 13 0 13 141 15 1221 15 972 0 1220 -3 1217 -12z m-1525 -229
c-6 -6 -33 -10 -62 -8 l-52 4 3 -40 3 -40 53 -1 c74 -1 78 -14 4 -14 l-62 0 0
-45 c0 -25 -4 -45 -10 -45 -6 0 -10 40 -10 100 l0 100 72 0 c52 0 69 -3 61
-11z m57 -84 l0 -94 58 -4 57 -3 -67 -2 -68 -2 0 100 c0 60 4 100 10 100 6 0
10 -38 10 -95z m267 18 c47 -104 54 -123 44 -123 -4 0 -13 11 -19 25 -10 23
-17 25 -70 25 -53 0 -60 -2 -70 -25 -6 -14 -16 -25 -21 -25 -5 0 11 45 36 100
26 55 50 100 55 100 5 0 25 -35 45 -77z m133 22 c19 -30 37 -55 40 -55 3 0 21
25 40 55 51 80 60 74 60 -45 0 -60 -4 -100 -10 -100 -6 0 -10 36 -10 88 l0 87
-38 -57 c-20 -32 -39 -58 -42 -58 -3 0 -21 26 -40 58 l-35 57 -3 -87 c-4 -122
-22 -112 -22 12 0 119 9 125 60 45z m263 48 l-63 -4 0 -39 0 -40 61 0 c37 0
58 -4 54 -10 -3 -5 -31 -10 -61 -10 l-54 0 0 -40 0 -39 68 -4 67 -3 -77 -2
-78 -2 0 100 0 100 73 -2 72 -2 -62 -3z m-266 -348 c20 -8 34 -18 30 -21 -3
-3 -14 -1 -25 5 -63 34 -132 -8 -132 -79 0 -68 60 -107 119 -77 17 9 33 11 36
7 9 -14 -30 -30 -74 -30 -54 0 -91 32 -97 85 -6 51 12 85 56 107 42 22 42 22
87 3z m379 0 c65 -27 79 -117 26 -170 -33 -34 -99 -35 -137 -2 -38 33 -45 101
-15 140 37 47 71 55 126 32z m-1125 -24 c23 -23 29 -38 29 -71 0 -33 -6 -48
-29 -71 -26 -25 -37 -29 -85 -29 l-56 0 0 100 0 100 56 0 c48 0 59 -4 85 -29z
m147 22 l-68 -4 0 -39 0 -40 60 0 c33 0 60 -4 60 -10 0 -6 -27 -10 -60 -10
l-60 0 0 -35 c0 -38 -1 -37 78 -35 31 1 52 -3 52 -9 0 -7 -27 -11 -70 -11
l-70 0 0 100 0 100 73 -2 72 -2 -67 -3z m220 0 l-38 -4 0 -95 c0 -56 -4 -94
-10 -94 -6 0 -10 38 -10 94 l0 95 -37 4 c-21 2 0 4 47 4 47 0 68 -2 48 -4z
m145 0 l-63 -4 0 -39 0 -40 61 0 c40 0 58 -4 54 -11 -4 -6 -21 -10 -39 -9 -72
4 -76 3 -76 -35 l0 -35 59 0 c33 0 63 -4 66 -10 4 -6 -22 -10 -69 -10 l-76 0
0 100 0 100 73 -2 72 -2 -62 -3z m415 0 l-38 -4 0 -95 c0 -56 -4 -94 -10 -94
-6 0 -10 38 -10 94 l0 95 -37 4 c-21 2 0 4 47 4 47 0 68 -2 48 -4z m438 -19
c21 -32 10 -73 -24 -90 l-24 -12 32 -36 c43 -49 24 -46 -25 4 -23 24 -48 40
-62 40 -20 0 -23 -5 -23 -40 0 -22 -4 -40 -10 -40 -6 0 -10 40 -10 100 l0 100
65 0 c58 0 66 -2 81 -26z"/>
<path d="M2436 2515 c-14 -31 -26 -59 -26 -61 0 -2 23 -4 50 -4 28 0 50 4 50
9 0 5 -11 33 -24 62 l-25 52 -25 -58z"/>
<path d="M2915 2205 c-18 -17 -25 -35 -25 -63 0 -51 25 -81 72 -89 32 -5 41
-1 68 25 33 34 38 67 15 111 -25 49 -90 57 -130 16z"/>
<path d="M1770 2145 l0 -85 41 0 c53 0 74 13 88 51 22 63 -24 119 -100 119
l-29 0 0 -85z"/>
<path d="M3130 2180 l0 -50 41 0 c53 0 79 15 79 45 0 36 -26 55 -76 55 l-44 0
0 -50z"/>
<path d="M1899 1153 c0 -7 0 -219 1 -235 0 -5 9 -8 19 -8 17 0 20 8 23 48 l3
47 63 3 c54 3 62 6 62 22 0 18 -7 20 -65 20 l-65 0 0 35 0 35 70 0 c63 0 70 2
70 20 0 19 -7 20 -90 20 -49 0 -90 -3 -91 -7z"/>
<path d="M2110 1035 l0 -125 85 0 c84 0 85 0 85 25 0 24 -3 25 -60 25 l-60 0
-1 93 c-1 50 -1 95 0 100 0 4 -10 7 -24 7 l-25 0 0 -125z"/>
<path d="M2351 1045 c-28 -63 -51 -120 -51 -125 0 -21 41 -9 52 15 10 23 16
25 78 25 62 0 68 -2 78 -25 12 -25 52 -36 52 -13 0 6 -23 62 -51 125 -47 104
-54 113 -79 113 -25 0 -31 -9 -79 -115z m103 12 c9 -23 16 -45 16 -49 0 -3
-18 -6 -40 -6 -22 0 -40 2 -40 6 0 15 33 92 40 92 4 0 15 -19 24 -43z"/>
<path d="M2590 1035 c0 -118 1 -125 20 -125 18 0 20 7 20 85 0 47 4 85 8 85 5
0 23 -20 41 -45 18 -25 36 -45 40 -45 4 0 23 21 41 47 19 26 35 42 37 37 1 -5
4 -43 5 -84 3 -69 5 -75 26 -78 22 -3 22 -2 22 122 l0 126 -28 0 c-23 0 -35
-10 -63 -50 -19 -27 -36 -50 -39 -50 -3 0 -21 23 -40 50 -27 39 -41 50 -62 50
l-28 0 0 -125z"/>
<path d="M2900 1035 l0 -125 90 0 c89 0 90 0 90 25 0 24 -2 25 -71 25 l-70 0
3 28 c3 26 5 27 71 30 59 3 67 5 67 22 0 18 -7 20 -70 20 l-70 0 0 30 0 30 70
0 c63 0 70 2 70 20 0 19 -7 20 -90 20 l-90 0 0 -125z"/>
<path d="M2566 730 c-89 -27 -122 -154 -56 -220 41 -41 147 -45 179 -6 17 21
-11 41 -38 27 -35 -19 -80 -13 -108 15 -22 22 -25 32 -20 67 9 66 70 97 129
66 16 -8 24 -8 35 4 14 13 13 17 -8 30 -33 20 -78 27 -113 17z"/>
<path d="M3026 730 c-67 -21 -105 -92 -85 -163 13 -49 38 -73 87 -87 85 -22
162 37 162 124 0 91 -79 151 -164 126z m87 -53 c38 -27 38 -117 0 -144 -25
-19 -77 -16 -104 6 -19 15 -24 29 -24 66 0 37 5 51 24 66 27 22 79 25 104 6z"/>
<path d="M1540 605 l0 -127 79 3 c68 4 83 8 105 28 56 53 56 140 0 192 -22 20
-38 24 -105 28 l-79 3 0 -127z m162 55 c24 -30 23 -85 -2 -110 -14 -14 -33
-20 -65 -20 l-45 0 0 81 0 82 47 -6 c32 -3 53 -12 65 -27z"/>
<path d="M1800 605 l0 -125 96 0 c93 0 95 1 92 23 -3 20 -9 22 -75 25 -70 3
-73 4 -73 27 0 24 2 25 70 25 68 0 70 1 70 25 0 24 -2 25 -71 25 l-70 0 3 28
c3 25 6 27 53 29 28 0 60 2 73 2 15 1 22 7 22 21 0 19 -7 20 -95 20 l-95 0 0
-125z"/>
<path d="M2020 710 c0 -17 7 -20 40 -20 l40 0 0 -105 0 -105 25 0 25 0 0 105
0 105 40 0 c33 0 40 3 40 20 0 19 -7 20 -105 20 -98 0 -105 -1 -105 -20z"/>
<path d="M2260 605 l0 -125 90 0 c89 0 90 0 90 25 0 24 -2 25 -70 25 -68 0
-70 1 -70 25 0 24 2 25 70 25 68 0 70 1 70 25 0 24 -2 25 -71 25 l-70 0 3 28
c3 26 5 27 71 30 59 3 67 5 67 22 0 18 -7 20 -90 20 l-90 0 0 -125z"/>
<path d="M2710 710 c0 -17 7 -20 40 -20 l40 0 0 -105 0 -105 25 0 25 0 0 105
0 105 40 0 c33 0 40 3 40 20 0 19 -7 20 -105 20 -98 0 -105 -1 -105 -20z"/>
<path d="M3230 605 c0 -118 1 -125 20 -125 17 0 20 7 20 40 0 37 2 40 28 40
21 0 37 -10 61 -40 25 -31 39 -40 63 -40 l30 0 -37 41 -37 41 26 22 c14 11 29
35 32 53 5 27 1 37 -24 63 -29 28 -35 30 -106 30 l-76 0 0 -125z m141 75 c22
-13 25 -43 5 -59 -8 -7 -34 -11 -58 -9 -36 3 -44 7 -46 26 -6 39 5 52 43 52
20 0 45 -5 56 -10z"/>
</g>
</svg>
