<?xml version="1.0" standalone="no"?>
<!DOCTYPE svg PUBLIC "-//W3C//DTD SVG 20010904//EN"
 "http://www.w3.org/TR/2001/REC-SVG-20010904/DTD/svg10.dtd">
<svg version="1.0" xmlns="http://www.w3.org/2000/svg"
 width="1224.000000pt" height="1224.000000pt" viewBox="0 0 1224.000000 1224.000000"
 preserveAspectRatio="xMidYMid meet">

<g transform="translate(0.000000,1224.000000) scale(0.100000,-0.100000)"
fill="#000000" stroke="none">
<path d="M5343 9333 c-13 -2 -36 -21 -53 -41 l-30 -37 0 -217 0 -218 -367 -1
c-203 -1 -379 -4 -393 -8 -14 -4 -35 -22 -47 -40 l-23 -34 0 -2622 0 -2623 29
-31 c16 -17 40 -32 53 -32 12 -1 181 -1 373 0 193 1 355 -2 362 -6 8 -6 13
-73 15 -232 l3 -223 33 -29 c18 -16 43 -29 57 -29 20 0 521 106 660 140 22 5
417 93 878 195 461 102 846 189 855 194 10 5 26 19 37 31 20 22 20 41 20 2656
l0 2634 -25 25 c-26 25 -73 37 -1315 310 -783 173 -1071 236 -1085 239 -8 2
-25 1 -37 -1z m734 -373 c595 -131 692 -153 773 -171 172 -39 469 -104 593
-131 l147 -31 0 -2503 0 -2503 -37 -10 c-21 -5 -357 -80 -748 -166 -390 -86
-847 -187 -1015 -224 -168 -38 -308 -66 -312 -64 -10 5 -11 5917 -1 5926 3 4
8 7 9 7 2 0 268 -58 591 -130z m-834 -359 c16 -1 17 -126 17 -2481 l0 -2480
-307 2 -308 3 -3 2477 -2 2477 52 3 c47 3 507 2 551 -1z"/>
<path d="M5754 6495 c-51 -35 -55 -62 -54 -377 1 -329 4 -346 65 -375 32 -15
40 -16 78 -3 76 27 78 36 75 398 l-3 314 -33 29 c-37 33 -93 39 -128 14z"/>
<path d="M2954 7656 c-84 -37 -322 -354 -437 -582 -150 -298 -221 -610 -220
-964 2 -475 148 -902 438 -1284 135 -178 206 -246 257 -246 63 0 107 44 108
108 0 38 -6 49 -48 95 -245 263 -409 560 -486 877 -42 176 -50 255 -50 465 0
216 9 296 54 471 79 308 237 601 438 815 90 96 108 135 88 184 -15 34 -67 75
-96 75 -8 -1 -29 -7 -46 -14z"/>
<path d="M9191 7653 c-40 -20 -65 -71 -56 -115 4 -16 36 -62 72 -101 144 -159
248 -312 334 -492 326 -684 213 -1518 -280 -2071 -126 -142 -134 -153 -128
-199 11 -76 87 -116 156 -81 47 25 203 208 298 351 162 245 269 514 324 813
30 165 37 472 15 637 -41 292 -141 582 -283 819 -136 226 -340 457 -402 456
-9 0 -31 -8 -50 -17z"/>
<path d="M3328 7226 c-42 -33 -167 -186 -220 -271 -293 -471 -316 -1063 -61
-1557 62 -119 185 -289 261 -360 44 -41 57 -48 93 -48 54 0 96 30 105 75 9 52
0 74 -63 144 -75 82 -167 211 -204 283 -254 503 -187 1098 172 1507 103 118
115 145 87 206 -28 62 -104 71 -170 21z"/>
<path d="M8773 7241 c-19 -12 -35 -32 -39 -48 -3 -15 -7 -33 -9 -39 -5 -18 22
-67 60 -109 101 -111 160 -194 220 -314 108 -214 140 -352 140 -606 0 -199
-12 -279 -67 -440 -57 -168 -150 -326 -277 -468 -73 -82 -86 -116 -66 -164 25
-59 76 -80 135 -57 70 28 241 249 331 428 202 399 220 871 49 1290 -67 167
-176 337 -297 465 -58 62 -74 73 -108 77 -29 4 -49 -1 -72 -15z"/>
<path d="M8392 6848 c-39 -10 -72 -58 -72 -104 0 -23 17 -52 66 -115 84 -106
117 -165 149 -259 35 -106 48 -202 40 -295 -14 -181 -71 -320 -185 -455 -85
-100 -92 -140 -35 -197 32 -32 39 -35 78 -30 35 5 51 15 98 65 133 141 217
315 249 514 17 104 8 299 -19 401 -41 154 -154 354 -248 436 -49 43 -73 51
-121 39z"/>
<path d="M3714 6798 c-355 -367 -358 -968 -7 -1348 39 -42 56 -52 88 -56 53
-7 99 22 115 71 17 51 9 70 -60 150 -69 79 -141 214 -167 315 -24 93 -24 292
1 387 23 91 81 205 143 284 91 114 95 121 89 159 -8 51 -55 90 -109 90 -38 0
-48 -5 -93 -52z"/>
</g>
</svg>
