<?xml version="1.0" standalone="no"?>
<!DOCTYPE svg PUBLIC "-//W3C//DTD SVG 20010904//EN"
 "http://www.w3.org/TR/2001/REC-SVG-20010904/DTD/svg10.dtd">
<svg version="1.0" xmlns="http://www.w3.org/2000/svg"
 width="1224.000000pt" height="1224.000000pt" viewBox="0 0 1224.000000 1224.000000"
 preserveAspectRatio="xMidYMid meet">

<g transform="translate(0.000000,1224.000000) scale(0.100000,-0.100000)"
fill="#000000" stroke="none">
<path d="M5765 11533 c-944 -50 -1769 -244 -2415 -568 l-110 -55 -1270 0
-1271 0 3 -87 3 -88 165 -1 c91 0 595 -2 1120 -3 l955 -2 -29 -22 c-165 -124
-337 -291 -439 -425 -168 -223 -259 -529 -227 -759 36 -267 149 -484 370 -716
62 -64 115 -117 118 -117 4 0 7 202 7 450 -1 512 4 598 41 702 139 390 584
712 1308 944 425 137 818 209 1451 266 191 17 954 17 1145 0 478 -43 863 -102
1122 -171 40 -11 117 -31 171 -46 54 -14 175 -52 268 -85 625 -217 1035 -515
1182 -859 54 -126 57 -159 57 -702 0 -274 3 -499 8 -499 25 0 240 245 305 347
244 382 253 751 31 1131 -96 163 -272 353 -457 495 l-82 62 65 2 c36 2 540 4
1120 5 l1055 3 3 88 3 87 -1269 0 -1269 0 -144 69 c-782 375 -1727 566 -2764
559 -148 -1 -297 -3 -330 -5z"/>
<path d="M5765 10934 c-27 -2 -126 -8 -220 -15 -175 -11 -490 -48 -650 -75
-1081 -185 -1821 -570 -1987 -1034 -23 -64 -23 -70 -26 -560 l-2 -495 26 35
c15 19 77 85 138 145 633 622 2200 961 3788 820 616 -55 1128 -169 1626 -365
88 -34 311 -145 400 -199 185 -111 378 -274 452 -380 19 -27 38 -50 43 -51 12
0 9 922 -4 982 -64 306 -407 600 -954 820 -445 179 -992 297 -1635 354 -162
14 -868 27 -995 18z"/>
<path d="M5825 9653 c-926 -44 -1673 -209 -2236 -494 -389 -197 -646 -453
-698 -697 -74 -347 184 -681 737 -955 163 -80 345 -153 546 -217 54 -17 100
-30 101 -28 2 2 -50 196 -116 432 -68 244 -119 447 -119 472 0 50 34 150 75
220 41 69 163 187 263 252 271 176 634 296 1097 361 432 61 982 53 1420 -20
540 -90 976 -286 1177 -528 78 -93 128 -208 128 -295 0 -22 -36 -175 -80 -340
-125 -474 -140 -533 -140 -544 0 -13 274 80 450 153 569 236 908 562 927 890
9 148 -39 281 -154 425 -373 465 -1314 803 -2498 896 -186 14 -721 25 -880 17z
m-2330 -1145 c30 -16 75 -60 91 -90 18 -35 18 -106 -1 -150 -30 -74 -125 -126
-200 -112 -79 15 -155 106 -155 185 0 43 30 107 63 137 51 48 140 61 202 30z
m5422 -10 c44 -26 71 -66 85 -126 10 -48 9 -54 -18 -109 -21 -43 -39 -64 -69
-80 -66 -37 -108 -39 -170 -8 -123 60 -147 204 -50 294 24 22 56 43 72 47 15
3 33 7 38 9 22 6 82 -9 112 -27z"/>
<path d="M5955 8911 l-100 -6 -5 -508 -5 -507 273 0 272 0 0 504 c0 278 -3
507 -7 509 -14 8 -327 14 -428 8z"/>
<path d="M5620 8889 c-299 -40 -585 -102 -773 -168 -116 -40 -273 -109 -287
-127 -9 -10 22 -108 145 -446 86 -238 158 -439 160 -445 6 -18 14 -17 113 16
185 63 424 117 627 142 55 6 103 17 107 23 9 13 11 977 2 1000 -3 9 -11 15
-18 15 -6 -1 -40 -5 -76 -10z"/>
<path d="M6525 8888 c-3 -7 -4 -238 -3 -512 l3 -499 155 -23 c234 -34 356 -62
568 -131 67 -22 116 -33 121 -27 4 5 47 119 96 254 48 135 116 323 152 419 35
96 66 186 69 200 6 28 9 26 -158 100 -191 85 -513 166 -813 205 -66 9 -135 19
-153 22 -21 3 -34 1 -37 -8z"/>
<path d="M4370 8477 c-114 -89 -187 -198 -197 -290 -5 -54 4 -92 153 -617 26
-91 49 -177 52 -192 2 -16 8 -28 12 -28 5 0 18 12 30 28 38 50 154 143 247
198 l92 55 -30 82 c-17 45 -76 206 -131 357 -54 151 -114 314 -131 362 -18 49
-34 88 -37 88 -3 0 -30 -20 -60 -43z"/>
<path d="M7806 8512 c-3 -5 -51 -135 -107 -288 -55 -153 -125 -346 -155 -428
-30 -82 -54 -154 -54 -161 0 -6 41 -36 92 -66 62 -36 123 -84 185 -144 64 -63
93 -86 96 -75 49 167 207 789 207 814 0 48 -23 107 -69 175 -34 50 -65 80
-173 169 -9 7 -19 9 -22 4z"/>
<path d="M5979 7758 c-777 -25 -1422 -267 -1525 -571 -114 -338 454 -656 1315
-737 168 -16 595 -13 753 5 388 45 641 109 884 225 245 115 380 255 392 406 4
58 2 71 -28 132 -147 298 -736 508 -1531 544 -30 2 -147 0 -260 -4z"/>
<path d="M6069 4740 c-294 -183 -493 -420 -583 -696 -57 -171 -70 -262 -70
-484 -1 -242 9 -303 89 -550 64 -201 79 -281 65 -345 -33 -145 -137 -223 -259
-191 -90 23 -147 101 -187 257 -28 109 -16 312 25 421 5 14 7 28 5 31 -5 5
-81 -35 -164 -88 -55 -34 -159 -141 -204 -210 -119 -179 -175 -375 -183 -640
-15 -462 135 -858 449 -1189 55 -59 133 -133 172 -165 125 -103 308 -214 282
-173 -7 11 -54 187 -77 287 -54 236 -24 446 88 611 46 68 114 144 129 144 5 0
9 -43 9 -98 0 -85 3 -104 27 -153 28 -56 92 -129 113 -129 20 0 73 64 96 114
29 68 26 98 -52 456 -16 73 -6 210 20 285 44 123 150 246 263 303 34 17 63 30
65 28 2 -2 -8 -44 -21 -94 -57 -214 -38 -409 59 -602 29 -58 111 -174 143
-203 19 -18 21 -16 58 60 49 100 136 189 225 231 69 33 146 54 154 43 2 -4 -6
-23 -19 -42 -41 -61 -66 -144 -66 -220 0 -59 10 -99 64 -262 134 -398 138
-475 38 -674 -18 -34 -36 -64 -42 -68 -5 -3 -10 -13 -10 -21 0 -19 187 75 306
154 236 158 417 369 504 586 50 124 63 203 57 341 -11 245 -73 438 -212 664
-29 47 -64 109 -78 136 -34 69 -67 206 -67 280 0 127 44 388 104 623 l24 93
-31 -7 c-50 -11 -177 -54 -237 -82 -209 -94 -425 -305 -534 -521 l-28 -54 -65
64 c-290 286 -457 647 -482 1049 -14 214 18 443 90 648 17 46 29 87 27 92 -2
4 -37 -14 -79 -40z"/>
</g>
</svg>
