<?xml version="1.0" standalone="no"?>
<!DOCTYPE svg PUBLIC "-//W3C//DTD SVG 20010904//EN"
 "http://www.w3.org/TR/2001/REC-SVG-20010904/DTD/svg10.dtd">
<svg version="1.0" xmlns="http://www.w3.org/2000/svg"
 width="1224.000000pt" height="1224.000000pt" viewBox="0 0 1224.000000 1224.000000"
 preserveAspectRatio="xMidYMid meet">

<g transform="translate(0.000000,1224.000000) scale(0.100000,-0.100000)"
fill="#000000" stroke="none">
<path d="M4976 11108 c3 -84 12 -191 20 -238 87 -503 487 -882 995 -941 509
-59 999 236 1189 715 57 145 71 223 77 429 l6 187 -1147 0 -1146 0 6 -152z
m1844 -265 c0 -23 -96 -196 -133 -241 -140 -169 -355 -272 -567 -272 -215 0
-444 110 -574 277 -42 52 -126 208 -126 232 0 8 198 11 700 11 385 0 700 -3
700 -7z"/>
<path d="M3979 9047 c-50 -27 -96 -92 -106 -150 -3 -20 0 -58 8 -84 21 -76 71
-116 274 -220 610 -310 1188 -456 1865 -470 506 -11 924 47 1390 194 350 110
788 312 893 412 79 75 82 188 7 274 -81 92 -159 90 -345 -9 -448 -238 -882
-377 -1380 -441 -176 -23 -730 -26 -895 -5 -551 70 -984 210 -1493 485 -85 46
-150 50 -218 14z"/>
<path d="M8980 7590 c-19 -3 -95 -39 -169 -80 -543 -297 -1137 -506 -1731
-609 -148 -26 -417 -61 -464 -61 -21 0 -36 -5 -36 -12 0 -6 31 -68 69 -137 38
-69 82 -152 98 -185 l28 -58 65 5 c111 9 437 66 620 109 374 86 805 230 1110
371 41 19 107 49 145 67 139 63 407 214 443 250 55 53 74 130 51 201 -33 99
-128 156 -229 139z"/>
<path d="M3114 7558 c-86 -58 -117 -162 -75 -253 33 -72 88 -109 396 -263 467
-233 939 -397 1465 -507 228 -47 624 -105 637 -91 8 7 -30 285 -49 361 l-13
50 -120 16 c-581 80 -1137 248 -1680 509 -71 35 -165 82 -207 106 -160 91
-192 104 -251 104 -45 0 -63 -6 -103 -32z"/>
<path d="M5820 7138 c0 -7 12 -51 25 -98 113 -385 143 -905 80 -1390 -59 -448
-200 -903 -325 -1042 l-35 -39 -34 52 c-85 130 -152 339 -193 594 -20 122 -23
179 -23 447 0 169 -3 304 -6 300 -13 -17 -104 -222 -158 -359 -97 -243 -154
-449 -203 -729 -20 -113 -22 -163 -22 -414 0 -278 1 -289 33 -465 43 -236 46
-265 32 -265 -28 0 -103 45 -147 88 -52 51 -134 172 -182 267 -37 75 -116 266
-133 323 -7 23 -16 39 -21 34 -11 -11 -54 -269 -70 -422 -18 -177 -15 -534 6
-694 115 -881 590 -1571 1431 -2080 112 -68 390 -209 481 -245 l50 -19 -4 143
c-8 277 45 466 193 690 91 137 175 232 490 555 416 427 609 759 701 1205 23
112 27 155 27 310 0 205 -15 322 -69 545 -58 238 -160 500 -296 760 -73 141
-267 460 -279 460 -4 0 -7 -49 -8 -109 -1 -210 -71 -419 -203 -615 -29 -44
-60 -90 -68 -102 -29 -46 -27 -50 -75 191 -156 786 -451 1480 -837 1965 -62
77 -145 170 -153 170 -3 0 -5 -6 -5 -12z"/>
<path d="M2229 6003 c-144 -74 -153 -266 -16 -356 190 -124 645 -345 1027
-499 308 -123 956 -327 1050 -329 14 -1 52 9 85 21 33 12 83 24 110 27 l50 5
23 127 c12 69 25 136 28 148 5 19 0 22 -53 33 -367 74 -886 239 -1298 412
-166 70 -533 249 -695 339 -199 112 -222 117 -311 72z"/>
<path d="M9859 6015 c-19 -7 -96 -46 -170 -88 -505 -282 -1135 -535 -1675
-672 -60 -16 -112 -31 -116 -35 -5 -3 16 -62 46 -130 29 -69 62 -150 72 -180
22 -63 28 -70 58 -63 172 41 662 199 876 284 406 160 964 431 1093 532 52 40
77 93 77 162 0 67 -15 99 -69 148 -59 54 -123 68 -192 42z"/>
</g>
</svg>
