<?xml version="1.0" standalone="no"?>
<!DOCTYPE svg PUBLIC "-//W3C//DTD SVG 20010904//EN"
 "http://www.w3.org/TR/2001/REC-SVG-20010904/DTD/svg10.dtd">
<svg version="1.0" xmlns="http://www.w3.org/2000/svg"
 width="1224.000000pt" height="816.000000pt" viewBox="0 0 1224.000000 816.000000"
 preserveAspectRatio="xMidYMid meet">

<g transform="translate(0.000000,816.000000) scale(0.100000,-0.100000)"
fill="#000000" stroke="none">
<path d="M5820 7024 c-517 -28 -847 -73 -1205 -164 -215 -55 -322 -92 -470
-164 -151 -74 -238 -135 -294 -206 -64 -81 -71 -121 -71 -404 0 -135 2 -246 5
-246 3 0 53 25 113 55 354 181 963 304 1707 346 310 17 1046 6 1315 -20 637
-62 1086 -163 1390 -314 69 -34 128 -63 133 -65 4 -2 7 117 7 265 0 260 -1
269 -24 318 -27 58 -115 145 -201 201 -291 186 -852 326 -1518 379 -181 15
-745 27 -887 19z"/>
<path d="M5650 6129 c-845 -46 -1565 -208 -1820 -410 l-50 -39 0 -128 c0 -70
5 -144 11 -165 14 -52 60 -98 137 -138 l62 -32 78 36 c172 78 337 129 607 186
1096 231 2822 141 3481 -181 l83 -41 77 39 c46 23 87 52 103 73 25 33 26 39
29 196 l3 162 -38 30 c-246 192 -885 346 -1678 404 -200 14 -879 20 -1085 8z"/>
<path d="M5735 5530 c-701 -37 -1300 -146 -1623 -295 l-76 -36 69 -45 c167
-109 286 -231 399 -407 l57 -88 27 19 c51 37 129 71 218 96 111 32 283 68 294
61 11 -7 60 -91 60 -103 0 -5 -24 -12 -52 -16 -110 -14 -325 -70 -388 -102
-25 -12 -53 -31 -63 -42 -17 -19 -16 -21 69 -100 l86 -81 41 34 c47 41 156 84
285 114 131 30 135 29 166 -23 14 -25 26 -49 26 -54 0 -5 -26 -13 -57 -16 -82
-10 -250 -53 -301 -77 -45 -22 -64 -58 -43 -83 39 -47 244 -95 546 -128 174
-19 256 -22 635 -22 445 0 616 9 870 49 172 28 321 78 334 112 21 54 -103 109
-319 143 -44 7 -83 16 -87 19 -4 3 7 28 24 54 35 54 41 55 145 32 153 -35 267
-82 316 -130 l27 -28 77 69 c102 93 105 99 68 130 -53 42 -238 99 -407 126
-89 13 -92 18 -48 83 l29 43 99 -18 c165 -30 349 -93 418 -145 19 -14 23 -11
91 93 110 166 238 294 391 392 28 18 52 36 52 40 0 4 -28 20 -62 35 -301 135
-802 236 -1393 280 -244 19 -782 27 -1000 15z m770 -630 c166 -8 485 -36 491
-43 2 -1 -12 -26 -29 -55 -37 -61 -15 -58 -267 -36 -226 21 -906 24 -1105 6
-71 -7 -167 -15 -211 -19 l-82 -6 -27 42 c-43 69 -44 67 47 79 76 10 319 28
478 35 165 8 523 6 705 -3z m205 -300 c58 -6 107 -14 109 -16 5 -5 -37 -84
-53 -100 -8 -9 -55 -8 -181 2 -217 17 -722 17 -935 0 -91 -7 -169 -12 -175 -9
-15 6 -66 101 -56 107 7 5 120 16 281 30 104 8 912 -3 1010 -14z"/>
<path d="M5907 3628 c-210 -423 -343 -749 -421 -1033 -2 -5 -36 56 -75 137
-40 81 -76 150 -79 152 -4 2 -8 -46 -9 -107 -3 -203 -59 -355 -229 -617 -150
-232 -181 -322 -169 -489 30 -404 271 -771 628 -957 186 -96 355 -137 567
-137 328 1 610 116 840 343 145 144 226 269 288 450 40 115 49 157 62 285 10
94 9 120 -4 179 -20 83 -71 188 -153 311 -184 278 -227 391 -240 624 l-6 124
-40 -79 c-23 -43 -73 -151 -113 -239 -39 -87 -76 -160 -80 -162 -5 -1 -24 34
-43 80 -40 95 -178 378 -191 391 -5 5 -7 -14 -3 -46 6 -64 -5 -208 -16 -208
-8 0 -99 140 -175 267 -55 92 -121 237 -155 338 -54 162 -66 242 -66 442 0
101 -1 183 -2 183 0 0 -53 -105 -116 -232z m182 -1248 c26 -89 93 -228 155
-324 25 -39 47 -75 49 -80 9 -23 18 4 24 69 l6 68 43 -84 c23 -46 52 -110 65
-141 12 -32 24 -58 28 -58 3 0 27 48 54 108 26 59 58 125 72 147 l24 40 1 -72
c0 -107 36 -207 121 -344 124 -197 140 -247 119 -377 -28 -174 -83 -284 -205
-408 -160 -162 -350 -235 -578 -221 -259 15 -501 176 -612 405 -37 78 -65 179
-71 266 -8 103 8 151 98 296 117 188 147 269 148 400 l1 55 42 -82 c23 -46 46
-83 50 -83 5 0 28 57 52 127 47 139 141 357 226 523 l54 105 6 -130 c4 -88 13
-154 28 -205z"/>
</g>
</svg>
