<?xml version="1.0" standalone="no"?>
<!DOCTYPE svg PUBLIC "-//W3C//DTD SVG 20010904//EN"
 "http://www.w3.org/TR/2001/REC-SVG-20010904/DTD/svg10.dtd">
<svg version="1.0" xmlns="http://www.w3.org/2000/svg"
 width="1224.000000pt" height="1224.000000pt" viewBox="0 0 1224.000000 1224.000000"
 preserveAspectRatio="xMidYMid meet">

<g transform="translate(0.000000,1224.000000) scale(0.100000,-0.100000)"
fill="#000000" stroke="none">
<path d="M5820 9550 c-1755 -60 -3133 -590 -3259 -1255 -8 -41 -11 -212 -9
-545 l3 -484 54 69 c255 327 761 595 1476 780 1325 345 3049 317 4310 -69 587
-179 1044 -446 1243 -725 l47 -66 3 75 c2 41 2 278 0 525 -4 491 -3 477 -67
602 -233 459 -1104 849 -2258 1012 -484 69 -1035 98 -1543 81z"/>
<path d="M5835 8143 c-49 -1 -196 -10 -325 -18 -1197 -79 -2212 -392 -2641
-815 -99 -98 -159 -184 -188 -273 -21 -63 -42 -194 -34 -212 2 -5 34 -30 71
-55 72 -49 235 -170 293 -220 l37 -30 50 67 c159 213 437 402 821 555 183 73
228 74 219 1 -2 -23 -12 -31 -53 -47 -398 -157 -622 -284 -793 -450 -74 -72
-162 -183 -162 -206 0 -7 22 -40 48 -74 26 -33 61 -81 77 -104 33 -50 28 -53
85 50 71 128 255 284 470 401 101 54 367 166 414 174 27 4 36 1 50 -18 34 -49
18 -64 -111 -114 -399 -154 -660 -341 -758 -544 -48 -99 -48 -101 56 -259 l94
-141 21 72 c31 104 40 124 88 192 57 79 162 178 262 244 101 68 348 188 484
236 331 115 744 197 1190 237 189 16 840 16 1025 0 644 -57 1156 -184 1524
-378 312 -165 473 -342 525 -577 6 -26 13 -18 102 115 106 161 105 155 53 263
-96 201 -346 382 -738 533 -68 26 -129 55 -135 64 -15 25 4 72 31 76 31 5 199
-60 359 -138 295 -144 492 -310 575 -483 l27 -58 61 89 c34 49 70 97 81 107
28 26 25 38 -22 103 -159 215 -417 388 -820 548 -81 32 -150 64 -152 71 -7 18
13 70 28 76 7 3 49 -7 93 -23 284 -99 573 -258 755 -414 67 -58 172 -177 204
-232 11 -18 14 -16 55 21 55 50 136 112 263 200 l98 68 -6 71 c-4 39 -13 92
-21 119 -49 167 -210 345 -450 495 -685 428 -1967 676 -3280 635z m670 -643
c381 -23 712 -64 1011 -125 170 -35 194 -46 194 -85 0 -9 -6 -24 -13 -35 -16
-21 -23 -20 -217 20 -462 95 -898 131 -1485 122 -520 -8 -882 -46 -1318 -138
-124 -27 -140 -23 -145 34 -3 36 -3 36 50 51 66 19 339 70 478 90 225 33 489
57 745 69 156 8 547 6 700 -3z m120 -351 c362 -24 888 -105 953 -145 27 -18
29 -55 2 -79 -18 -16 -23 -16 -87 -1 -184 43 -517 91 -823 118 -220 20 -916
16 -1155 -6 -276 -25 -593 -71 -773 -112 -78 -18 -102 -9 -102 41 0 42 10 48
110 69 569 117 1239 158 1875 115z"/>
<path d="M5780 6593 c-106 -5 -375 -33 -525 -54 -730 -104 -1316 -361 -1451
-635 -24 -49 -29 -71 -29 -134 1 -95 30 -156 123 -252 236 -245 787 -447 1452
-533 459 -59 1082 -59 1535 0 680 89 1252 303 1474 552 79 89 106 146 106 228
0 94 -33 164 -121 255 -287 297 -994 515 -1850 570 -144 9 -549 11 -714 3z
m743 -572 c328 -58 549 -167 620 -306 26 -51 28 -137 3 -183 -77 -147 -292
-254 -628 -314 -167 -30 -591 -33 -766 -5 -406 64 -649 202 -678 385 -28 174
209 340 585 412 172 33 253 39 506 35 189 -2 265 -7 358 -24z"/>
<path d="M5965 5943 c-310 -26 -548 -89 -685 -181 -250 -169 -12 -372 525
-447 146 -21 460 -24 595 -6 341 45 586 146 649 268 35 68 -14 143 -141 216
-181 105 -631 177 -943 150z"/>
<path d="M5364 4183 c-1 -267 -32 -391 -170 -668 -113 -230 -129 -289 -121
-465 3 -63 13 -144 22 -180 22 -80 72 -193 116 -257 37 -53 118 -143 129 -143
4 0 7 73 7 163 -2 244 36 393 167 662 46 94 91 191 99 216 70 205 22 508 -109
692 -37 52 -124 147 -134 147 -3 0 -5 -75 -6 -167z"/>
<path d="M6123 4329 c29 -106 39 -222 34 -383 -9 -276 -41 -390 -202 -726
-112 -233 -137 -303 -156 -430 -24 -168 12 -422 84 -589 37 -84 108 -193 181
-276 45 -51 64 -57 48 -14 -5 13 -17 88 -27 167 -15 124 -16 159 -6 265 27
263 71 410 200 661 131 256 164 370 163 568 0 290 -84 522 -259 721 -54 60
-69 70 -60 36z"/>
<path d="M6884 3733 c22 -112 15 -264 -20 -432 -25 -119 -49 -184 -139 -361
-45 -91 -92 -196 -104 -233 -44 -143 -37 -316 20 -493 34 -107 100 -213 180
-291 l54 -52 0 177 c0 266 30 388 166 662 101 204 119 258 126 385 9 171 -36
358 -120 490 -34 54 -144 175 -159 175 -5 0 -7 -12 -4 -27z"/>
</g>
</svg>
