<?xml version="1.0" standalone="no"?>
<!DOCTYPE svg PUBLIC "-//W3C//DTD SVG 20010904//EN"
 "http://www.w3.org/TR/2001/REC-SVG-20010904/DTD/svg10.dtd">
<svg version="1.0" xmlns="http://www.w3.org/2000/svg"
 width="1224.000000pt" height="1224.000000pt" viewBox="0 0 1224.000000 1224.000000"
 preserveAspectRatio="xMidYMid meet">

<g transform="translate(0.000000,1224.000000) scale(0.100000,-0.100000)"
fill="#000000" stroke="none">
<path d="M5705 9423 c-700 -41 -1206 -121 -1704 -269 -704 -210 -1143 -498
-1290 -846 l-26 -63 -3 -415 c-2 -228 -2 -459 0 -514 l3 -99 39 57 c21 30 82
98 136 150 638 612 2321 958 3990 820 1154 -95 2118 -412 2546 -838 56 -56
114 -121 130 -146 l29 -45 3 475 c1 283 -2 497 -8 530 -14 79 -89 223 -158
305 -177 209 -530 418 -957 565 -529 182 -1107 286 -1835 330 -146 9 -763 11
-895 3z"/>
<path d="M5670 8064 c-25 -2 -112 -8 -195 -14 -952 -68 -1800 -298 -2287 -620
-261 -172 -393 -354 -413 -570 l-6 -65 134 -93 c74 -51 159 -115 190 -142 30
-28 59 -50 64 -50 5 0 17 13 26 30 32 54 177 198 270 269 160 120 376 233 622
326 52 19 96 35 99 35 3 0 14 -10 26 -22 42 -46 29 -58 -142 -127 -397 -162
-656 -338 -791 -538 l-37 -56 25 -31 c38 -47 117 -158 122 -173 8 -20 20 -15
27 11 12 47 108 176 179 241 93 85 187 150 318 219 132 70 375 168 407 164 31
-4 47 -28 39 -59 -5 -21 -26 -33 -129 -73 -256 -100 -454 -215 -578 -336 -96
-93 -170 -216 -170 -283 0 -26 179 -294 184 -276 2 8 8 37 15 64 23 98 70 174
171 275 111 112 190 166 367 254 307 153 688 257 1158 315 251 31 430 41 759
41 527 0 939 -47 1351 -155 426 -111 733 -262 927 -457 70 -70 95 -103 127
-170 22 -46 44 -105 48 -133 l9 -50 93 140 c103 156 102 152 56 252 -50 111
-160 222 -324 328 -89 57 -306 163 -416 201 -109 39 -130 63 -92 112 16 20 44
14 166 -34 279 -112 469 -224 607 -360 64 -63 129 -153 154 -213 7 -17 15 -31
19 -31 3 0 16 18 28 39 13 22 46 70 74 107 l52 67 -22 41 c-11 23 -46 69 -77
104 -150 168 -410 330 -728 453 -100 39 -141 60 -148 75 -15 32 6 64 41 64 70
0 455 -176 618 -282 148 -97 295 -231 360 -329 14 -22 28 -39 31 -39 2 0 45
33 96 74 50 40 135 104 188 140 54 37 100 71 102 75 9 14 -15 163 -35 216 -83
223 -363 449 -774 625 -455 195 -1075 336 -1770 402 -180 17 -307 21 -695 23
-261 1 -495 1 -520 -1z m985 -624 c180 -14 375 -37 535 -61 164 -25 417 -77
442 -90 23 -12 24 -62 2 -80 -13 -11 -42 -7 -177 19 -795 158 -1639 172 -2452
41 -104 -17 -225 -39 -269 -50 -111 -27 -131 -26 -146 11 -10 23 -10 33 0 45
42 51 683 151 1125 174 202 11 756 6 940 -9z m0 -330 c299 -27 570 -65 776
-110 99 -21 124 -38 113 -74 -13 -45 -21 -46 -179 -15 -419 82 -760 113 -1245
113 -483 0 -839 -32 -1250 -114 -133 -26 -146 -27 -162 -13 -10 9 -18 29 -18
44 0 26 5 30 53 44 182 52 643 116 984 135 184 11 767 4 928 -10z"/>
<path d="M5690 6570 c-327 -30 -547 -62 -778 -116 -433 -100 -748 -242 -924
-415 -171 -167 -178 -320 -23 -487 398 -430 1631 -665 2810 -536 900 99 1606
433 1606 760 0 107 -46 194 -153 286 -285 245 -816 418 -1513 494 -172 18
-868 28 -1025 14z m815 -544 c375 -69 598 -202 621 -367 13 -97 -69 -206 -212
-281 -386 -202 -1170 -208 -1568 -12 -90 45 -157 95 -188 141 -148 219 72 425
547 512 155 29 161 29 450 26 189 -2 285 -7 350 -19z"/>
<path d="M5780 5930 c-241 -38 -450 -118 -524 -201 -60 -66 -60 -112 1 -180
101 -112 371 -196 707 -220 486 -35 1004 102 1057 280 36 121 -158 242 -491
308 -107 21 -161 25 -375 28 -213 4 -268 2 -375 -15z"/>
<path d="M3620 5411 c5 -11 15 -23 21 -27 6 -3 3 5 -6 20 -20 30 -30 35 -15 7z"/>
<path d="M3666 5348 c10 -14 21 -24 23 -22 3 3 -6 15 -18 27 l-24 22 19 -27z"/>
<path d="M6121 4420 c-1 -3 8 -54 19 -115 24 -134 26 -298 5 -444 -27 -187
-74 -320 -203 -576 -142 -285 -170 -467 -112 -740 41 -195 95 -302 235 -467
44 -52 61 -61 51 -25 -35 119 -46 377 -22 532 33 212 61 294 182 535 51 102
105 223 120 270 27 80 28 95 29 270 0 121 -5 204 -13 240 -39 158 -89 274
-164 375 -46 62 -127 154 -127 145z"/>
<path d="M5392 4333 c15 -141 -9 -331 -61 -491 -16 -49 -65 -158 -108 -243
-102 -199 -118 -260 -110 -442 7 -176 42 -288 130 -417 34 -49 116 -140 126
-140 4 0 7 73 7 163 -1 142 3 176 26 274 32 134 78 252 162 417 77 149 96 222
96 358 -1 207 -69 399 -190 531 -34 37 -67 67 -74 67 -9 0 -10 -19 -4 -77z"/>
<path d="M6863 3685 c1 -151 -2 -183 -26 -286 -33 -140 -54 -193 -150 -381
-90 -174 -109 -246 -108 -403 1 -198 73 -392 193 -520 33 -36 64 -65 68 -65 5
0 8 69 8 153 -2 255 29 383 152 627 116 232 124 260 124 435 1 129 -2 161 -23
230 -34 118 -92 222 -170 306 l-68 74 0 -170z"/>
</g>
</svg>
