<?xml version="1.0" standalone="no"?>
<!DOCTYPE svg PUBLIC "-//W3C//DTD SVG 20010904//EN"
 "http://www.w3.org/TR/2001/REC-SVG-20010904/DTD/svg10.dtd">
<svg version="1.0" xmlns="http://www.w3.org/2000/svg"
 width="1224.000000pt" height="1224.000000pt" viewBox="0 0 1224.000000 1224.000000"
 preserveAspectRatio="xMidYMid meet">

<g transform="translate(0.000000,1224.000000) scale(0.100000,-0.100000)"
fill="#000000" stroke="none">
<path d="M5404 10235 c-3 -8 -4 -122 -2 -252 l3 -238 32 -67 c59 -126 154
-199 286 -219 40 -6 214 -9 439 -7 354 3 376 5 426 25 103 42 185 124 224 225
19 48 21 75 22 298 l1 245 -713 3 c-626 2 -713 0 -718 -13z m1113 -211 c15
-11 40 -37 57 -58 26 -31 31 -48 34 -104 4 -62 2 -70 -30 -117 -45 -68 -103
-98 -180 -93 -75 5 -129 41 -163 108 -53 105 -17 216 90 274 43 23 155 18 192
-10z m-614 -92 c59 -60 39 -156 -41 -189 -32 -13 -42 -14 -77 -2 -54 19 -88
70 -82 123 13 97 130 137 200 68z"/>
<path d="M6349 9922 c-24 -22 -31 -36 -31 -66 0 -60 28 -90 89 -94 46 -3 53 0
77 28 30 36 33 68 11 110 -30 58 -95 67 -146 22z"/>
<path d="M4747 9402 c-31 -34 -20 -57 56 -127 430 -399 1026 -580 1614 -490
228 35 509 135 693 247 163 99 400 294 400 330 0 9 -8 26 -18 38 -25 31 -50
21 -132 -54 -195 -180 -401 -300 -656 -385 -547 -183 -1143 -102 -1619 219
-61 41 -186 138 -205 159 -25 28 -93 81 -103 81 -8 0 -21 -8 -30 -18z"/>
<path d="M4199 8848 l-13 -32 95 -89 c102 -97 308 -255 431 -330 115 -71 339
-180 465 -226 145 -53 344 -104 503 -130 192 -31 198 -31 269 15 33 21 60 42
61 45 0 4 -42 10 -92 13 -402 30 -826 168 -1168 380 -106 65 -278 196 -387
294 -115 104 -142 114 -164 60z"/>
<path d="M7893 8808 c-338 -310 -703 -510 -1136 -623 -49 -13 -91 -25 -93 -28
-7 -7 115 -67 135 -67 45 0 363 119 506 190 238 116 431 248 647 442 70 63 88
85 88 107 0 15 -5 32 -12 39 -25 25 -57 11 -135 -60z"/>
<path d="M3677 8332 c-31 -34 -20 -57 72 -144 467 -445 1076 -757 1714 -878
151 -28 147 -29 147 24 0 25 -4 48 -10 51 -5 3 -56 15 -112 26 -626 121 -1170
396 -1655 837 -62 56 -118 102 -126 102 -8 0 -21 -8 -30 -18z"/>
<path d="M8510 8343 c-8 -3 -49 -38 -90 -77 -225 -216 -513 -418 -797 -560
-104 -52 -338 -151 -416 -176 -38 -12 -39 -13 -34 -56 2 -25 7 -47 11 -51 15
-15 301 100 501 201 192 98 324 180 488 302 138 103 370 303 394 341 15 23 15
28 2 52 -15 27 -33 34 -59 24z"/>
<path d="M6230 7967 c-236 -70 -399 -272 -416 -515 -22 -294 197 -568 490
-614 268 -41 539 122 633 380 73 200 19 443 -131 596 -151 153 -374 213 -576
153z"/>
<path d="M3141 7796 c-15 -16 -21 -31 -17 -44 9 -27 153 -164 307 -292 495
-413 1099 -713 1719 -855 l75 -18 70 36 c43 21 64 37 55 40 -8 3 -87 22 -175
42 -720 168 -1372 524 -1927 1052 -36 34 -70 63 -75 63 -5 0 -20 -11 -32 -24z"/>
<path d="M8947 7722 c-594 -565 -1346 -940 -2147 -1069 -91 -14 -168 -29 -172
-32 -4 -4 9 -26 30 -49 l37 -42 110 19 c282 50 453 94 693 176 559 191 1056
492 1505 908 84 79 107 106 107 127 0 14 -5 31 -12 38 -28 28 -59 12 -151 -76z"/>
<path d="M2608 7263 c-31 -37 -29 -43 24 -99 68 -73 265 -248 393 -350 456
-364 950 -632 1508 -819 174 -59 173 -59 179 15 l3 32 -158 53 c-215 73 -360
132 -562 230 -454 219 -825 474 -1222 842 -67 62 -128 113 -136 113 -8 0 -21
-8 -29 -17z"/>
<path d="M9488 7192 c-613 -581 -1298 -968 -2098 -1185 -69 -19 -163 -42 -210
-52 -47 -10 -88 -21 -92 -24 -5 -4 13 -24 38 -45 l46 -39 57 13 c104 23 335
89 474 135 657 217 1260 576 1793 1066 80 74 147 143 150 156 7 28 -19 63 -47
63 -10 0 -60 -40 -111 -88z"/>
<path d="M5902 6669 c-91 -14 -175 -48 -367 -151 -93 -50 -226 -120 -295 -157
-141 -75 -230 -152 -273 -237 -33 -64 -41 -100 -177 -729 -61 -280 -115 -529
-120 -552 -23 -97 0 -191 63 -260 55 -60 107 -85 190 -91 60 -4 73 -2 131 27
60 29 106 73 133 126 11 20 38 141 148 645 66 304 86 353 185 450 59 57 173
130 185 119 2 -3 -5 -45 -16 -94 -11 -50 -46 -214 -79 -365 -33 -151 -78 -358
-100 -460 -23 -102 -48 -223 -55 -269 -27 -160 16 -318 118 -428 34 -37 256
-229 436 -378 381 -313 428 -357 476 -435 65 -107 62 -78 120 -1140 12 -214
21 -301 31 -317 57 -90 381 -119 553 -50 100 40 95 5 66 527 -61 1096 -63
1133 -85 1201 -41 133 -58 151 -482 505 -189 157 -344 294 -346 305 -3 19 68
357 265 1254 53 241 60 353 30 465 -50 186 -177 340 -347 422 -52 25 -115 51
-140 56 -71 17 -180 21 -248 11z"/>
<path d="M6840 5832 c0 -4 -16 -81 -36 -172 -74 -344 -84 -394 -84 -410 0 -8
86 -87 191 -175 105 -88 228 -191 273 -229 44 -37 104 -79 131 -92 56 -26 133
-31 195 -13 60 18 129 78 162 139 27 50 29 62 26 135 -5 121 -22 144 -246 331
-103 86 -252 211 -331 278 -79 66 -170 142 -202 169 -55 44 -79 57 -79 39z"/>
<path d="M5332 4128 c-18 -84 -250 -1162 -277 -1283 -132 -603 -175 -810 -175
-839 0 -45 28 -72 95 -92 132 -39 286 -42 416 -9 94 25 135 49 148 87 6 18 45
191 86 383 42 193 97 442 121 555 25 113 53 246 64 295 10 50 37 173 60 275
34 151 39 186 28 195 -54 41 -430 358 -456 384 -18 18 -44 48 -59 67 -14 19
-29 34 -33 34 -4 0 -12 -24 -18 -52z"/>
</g>
</svg>
