<?xml version="1.0" standalone="no"?>
<!DOCTYPE svg PUBLIC "-//W3C//DTD SVG 20010904//EN"
 "http://www.w3.org/TR/2001/REC-SVG-20010904/DTD/svg10.dtd">
<svg version="1.0" xmlns="http://www.w3.org/2000/svg"
 width="1224.000000pt" height="1224.000000pt" viewBox="0 0 1224.000000 1224.000000"
 preserveAspectRatio="xMidYMid meet">

<g transform="translate(0.000000,1224.000000) scale(0.100000,-0.100000)"
fill="#000000" stroke="none">
<path d="M4703 10004 c-56 -20 -123 -81 -153 -140 -20 -40 -25 -63 -25 -129 0
-70 4 -87 30 -134 16 -29 47 -68 69 -87 80 -69 -16 -65 1512 -62 l1379 3 47
27 c93 56 158 161 158 259 0 94 -69 205 -156 249 l-49 25 -1385 2 c-1203 1
-1390 0 -1427 -13z"/>
<path d="M4733 9208 c28 -400 282 -781 642 -961 106 -53 169 -75 292 -102 107
-24 129 -25 442 -25 364 0 438 8 596 62 114 39 200 82 293 148 296 209 478
527 508 889 l7 81 -1393 0 -1393 0 6 -92z"/>
<path d="M5542 7666 c-63 -63 -100 -109 -97 -117 6 -15 122 -108 177 -142 58
-36 190 -88 278 -109 128 -32 321 -29 455 6 154 40 293 113 403 212 l43 39
-107 108 c-58 59 -108 107 -110 107 -1 0 -37 -24 -78 -54 -42 -30 -113 -69
-159 -87 -71 -28 -97 -33 -197 -37 -172 -7 -297 32 -428 130 -35 27 -66 48
-71 48 -4 0 -53 -47 -109 -104z"/>
<path d="M4841 7025 l-104 -105 19 -21 c10 -12 60 -55 109 -97 208 -175 447
-301 721 -381 101 -30 101 -30 114 36 7 31 32 94 56 141 24 47 41 88 39 92 -2
4 -24 10 -47 13 -67 10 -223 64 -333 117 -121 57 -285 165 -378 249 -37 33
-73 61 -80 61 -7 -1 -59 -48 -116 -105z"/>
<path d="M7234 7099 c-43 -45 -211 -171 -296 -220 -40 -24 -110 -59 -156 -80
-45 -20 -85 -39 -89 -42 -3 -4 13 -27 36 -53 40 -46 111 -173 111 -200 0 -8 6
-14 13 -14 25 0 247 118 344 182 108 73 286 221 291 242 3 16 -194 216 -213
216 -6 0 -24 -14 -41 -31z"/>
<path d="M6177 6750 c-76 -20 -152 -64 -210 -122 -97 -100 -139 -226 -118
-363 27 -181 149 -318 322 -360 275 -68 539 138 539 420 0 174 -98 324 -258
397 -54 25 -83 31 -152 34 -47 2 -102 -1 -123 -6z"/>
<path d="M4117 6362 l-108 -108 78 -75 c284 -269 656 -495 1036 -628 49 -17
94 -31 100 -31 7 0 53 35 104 78 50 42 116 93 147 112 30 19 55 38 56 41 0 4
-52 21 -115 38 -408 113 -750 299 -1079 589 -57 51 -106 92 -108 92 -2 0 -52
-49 -111 -108z"/>
<path d="M7955 6429 c-197 -203 -588 -450 -898 -564 -170 -63 -395 -121 -544
-141 -29 -4 -53 -8 -53 -10 0 -2 19 -34 42 -71 23 -38 57 -102 76 -143 19 -41
35 -76 36 -77 3 -3 125 22 216 43 373 89 767 277 1085 517 108 82 305 256 305
271 0 13 -203 216 -217 216 -5 0 -27 -18 -48 -41z"/>
<path d="M3357 5722 c-59 -59 -107 -112 -107 -118 0 -12 194 -188 325 -296
143 -117 343 -254 511 -350 174 -100 517 -261 584 -275 l27 -5 18 139 c10 76
19 146 19 156 1 14 -19 27 -79 51 -121 49 -387 187 -507 263 -224 141 -429
299 -597 459 l-87 83 -107 -107z"/>
<path d="M8645 5709 c-439 -403 -1006 -713 -1560 -854 -60 -16 -114 -31 -118
-35 -4 -4 85 -51 198 -105 163 -78 211 -96 234 -92 38 8 255 92 391 152 198
87 464 238 648 367 171 121 412 320 512 422 l44 46 -104 105 c-58 58 -109 105
-115 104 -5 0 -64 -50 -130 -110z"/>
<path d="M5905 5725 c-150 -28 -288 -94 -420 -200 -147 -118 -485 -408 -514
-441 -70 -79 -77 -108 -132 -541 -57 -452 -57 -457 10 -524 41 -41 107 -64
155 -55 16 4 49 17 72 31 69 41 77 69 123 424 53 412 49 403 265 584 67 56
128 108 136 116 24 23 23 -3 -4 -127 -78 -361 -138 -648 -143 -689 -6 -55 -41
5 373 -646 225 -354 439 -691 670 -1057 78 -124 159 -247 180 -275 54 -68 118
-100 204 -100 80 1 131 25 187 89 45 51 63 101 63 172 -1 63 -19 103 -133 281
-52 82 -144 227 -205 323 -61 96 -156 247 -212 335 -378 596 -450 712 -450
727 0 24 119 589 129 613 7 17 17 2 59 -86 79 -164 90 -172 518 -374 196 -92
372 -169 393 -172 51 -7 120 24 155 70 56 74 41 195 -31 245 -29 19 -127 67
-409 198 -248 116 -287 157 -355 369 -110 347 -185 516 -270 609 -63 69 -83
80 -181 100 -91 19 -138 19 -233 1z"/>
<path d="M5375 3858 c-4 -9 -41 -144 -84 -300 l-78 -284 -168 -230 c-93 -126
-209 -283 -259 -349 -49 -66 -97 -138 -107 -160 -49 -107 5 -246 116 -296 77
-35 183 -17 244 42 34 32 550 725 577 774 12 22 41 111 64 198 35 131 40 163
31 180 -13 25 -295 404 -316 426 -12 13 -15 12 -20 -1z"/>
</g>
</svg>
