<?xml version="1.0" standalone="no"?>
<!DOCTYPE svg PUBLIC "-//W3C//DTD SVG 20010904//EN"
 "http://www.w3.org/TR/2001/REC-SVG-20010904/DTD/svg10.dtd">
<svg version="1.0" xmlns="http://www.w3.org/2000/svg"
 width="1224.000000pt" height="1224.000000pt" viewBox="0 0 1224.000000 1224.000000"
 preserveAspectRatio="xMidYMid meet">

<g transform="translate(0.000000,1224.000000) scale(0.100000,-0.100000)"
fill="#000000" stroke="none">
<path d="M5350 10337 c-48 -38 -50 -47 -50 -312 0 -271 6 -319 56 -416 29 -59
101 -139 159 -179 22 -15 69 -38 105 -51 65 -24 67 -24 495 -24 386 0 436 2
487 18 165 52 301 209 328 377 5 36 10 163 10 283 0 228 -7 272 -48 303 -24
19 -1519 20 -1542 1z m1380 -379 c0 -181 -2 -196 -24 -243 -25 -55 -90 -119
-142 -141 -26 -11 -119 -14 -441 -16 l-408 -3 -60 30 c-37 19 -71 46 -92 73
-52 68 -63 123 -63 312 0 92 3 170 7 173 3 4 280 7 615 7 l608 0 0 -192z"/>
<path d="M6326 10020 c-16 -5 -42 -22 -59 -37 -83 -78 -75 -208 16 -274 67
-49 168 -38 223 23 55 60 67 124 35 193 -22 49 -48 73 -98 91 -43 15 -75 16
-117 4z m113 -126 c12 -15 21 -34 21 -44 0 -34 -39 -70 -76 -70 -63 0 -95 65
-58 118 23 33 86 31 113 -4z"/>
<path d="M5823 9948 c-70 -18 -98 -113 -49 -163 66 -66 176 -27 176 63 0 70
-60 118 -127 100z"/>
<path d="M4752 9404 c-47 -32 -21 -73 123 -193 599 -499 1431 -591 2135 -236
130 66 325 206 449 322 44 43 52 55 46 74 -8 26 -32 49 -51 49 -6 0 -45 -30
-85 -66 -336 -302 -713 -462 -1154 -489 -205 -13 -476 24 -685 94 -204 69
-443 204 -600 339 -36 31 -67 59 -70 62 -15 16 -73 60 -79 60 -3 0 -17 -7 -29
-16z"/>
<path d="M4213 8868 c-31 -40 -26 -51 59 -131 358 -341 811 -576 1302 -677
147 -30 179 -29 191 9 5 17 -8 61 -19 61 -10 0 -170 33 -246 51 -245 57 -546
183 -755 317 -157 100 -291 206 -445 349 -36 34 -71 42 -87 21z"/>
<path d="M7894 8809 c-271 -246 -573 -432 -882 -544 -136 -49 -153 -67 -113
-116 l19 -24 73 24 c271 87 582 260 824 458 214 175 252 222 213 261 -25 25
-57 11 -134 -59z"/>
<path d="M3682 8334 c-39 -27 -28 -56 56 -135 427 -408 933 -689 1507 -840
178 -46 192 -47 207 -14 20 44 -1 69 -68 84 -112 25 -330 91 -447 135 -420
160 -756 368 -1104 685 -61 56 -115 101 -120 101 -5 0 -19 -7 -31 -16z"/>
<path d="M8510 8343 c-8 -3 -49 -38 -90 -77 -286 -274 -657 -515 -1015 -661
-38 -16 -78 -35 -87 -43 -24 -20 -23 -58 3 -76 19 -13 27 -13 78 6 93 34 355
163 479 237 204 120 437 297 624 473 77 73 88 98 59 127 -22 22 -26 23 -51 14z"/>
<path d="M6302 8029 c-268 -35 -488 -231 -557 -494 -20 -78 -21 -242 0 -320
23 -91 90 -216 153 -286 73 -80 183 -152 286 -186 70 -23 98 -26 201 -26 105
0 130 3 200 27 207 71 366 230 431 430 37 113 40 276 6 386 -96 312 -403 512
-720 469z m203 -215 c177 -46 317 -208 334 -385 12 -131 -16 -233 -94 -338
-37 -52 -126 -118 -192 -144 -253 -99 -541 50 -609 313 -59 232 77 478 304
551 71 22 179 24 257 3z"/>
<path d="M3135 7786 c-22 -33 -14 -45 87 -141 505 -484 1153 -843 1841 -1021
94 -25 99 -25 118 -8 22 20 25 57 6 72 -7 6 -64 25 -127 42 -654 176 -1227
493 -1748 968 -69 63 -131 112 -142 112 -11 0 -27 -11 -35 -24z"/>
<path d="M8947 7723 c-518 -493 -1176 -853 -1851 -1014 -80 -19 -100 -28 -109
-46 -14 -30 5 -73 32 -73 11 0 80 15 153 34 689 177 1325 529 1846 1023 95 91
108 116 76 147 -29 29 -54 17 -147 -71z"/>
<path d="M2605 7260 c-28 -31 -12 -60 82 -151 422 -405 949 -752 1498 -985
167 -71 406 -155 429 -152 26 4 45 52 30 75 -6 9 -80 42 -165 73 -647 238
-1172 559 -1692 1034 -76 69 -144 126 -151 126 -7 0 -21 -9 -31 -20z"/>
<path d="M9492 7197 c-379 -362 -771 -637 -1227 -862 -298 -146 -610 -263
-909 -341 -88 -22 -110 -32 -118 -50 -8 -18 -7 -29 6 -49 9 -14 22 -25 30 -25
27 0 308 82 462 134 505 173 1001 442 1424 771 195 152 475 404 486 437 8 25
-21 68 -47 68 -11 0 -57 -35 -107 -83z"/>
<path d="M5845 6626 c-101 -20 -138 -36 -355 -148 -386 -200 -451 -248 -522
-385 -41 -78 -53 -119 -107 -373 -22 -102 -74 -342 -116 -535 -90 -410 -96
-449 -85 -519 24 -147 145 -275 284 -302 43 -8 90 16 111 57 30 57 0 115 -75
143 -79 30 -120 84 -120 155 0 43 222 1088 260 1221 15 54 62 122 111 162 63
51 532 294 604 313 92 24 221 20 305 -9 186 -65 329 -230 360 -417 16 -95 11
-135 -55 -439 -31 -140 -73 -336 -94 -435 -22 -99 -64 -296 -95 -438 -55 -254
-62 -299 -50 -332 4 -9 166 -149 360 -311 194 -162 367 -312 384 -334 18 -23
41 -64 52 -93 22 -56 22 -57 83 -1152 15 -264 31 -490 36 -502 5 -13 23 -32
41 -43 41 -26 82 -20 120 17 36 35 36 9 -7 783 -51 914 -50 912 -105 1021 -48
94 -102 147 -422 415 -179 150 -328 277 -331 282 -3 4 0 37 8 73 8 35 37 168
64 294 28 127 87 399 133 605 81 369 83 377 83 510 -1 121 -3 143 -28 215 -85
243 -281 428 -521 490 -87 22 -228 27 -311 11z"/>
<path d="M5652 5847 c-47 -27 -39 1 -172 -612 -123 -568 -130 -603 -130 -694
0 -181 78 -368 200 -481 30 -28 230 -197 541 -456 226 -189 251 -214 287 -292
27 -61 26 -42 71 -850 l29 -503 28 -30 c36 -38 62 -44 107 -26 70 30 70 33 48
420 -12 188 -23 385 -26 437 -29 539 -32 558 -93 674 -20 39 -62 95 -92 126
-30 31 -203 179 -385 330 -181 151 -354 299 -383 327 -89 89 -140 228 -129
358 4 51 138 691 223 1064 30 132 26 163 -25 198 -38 26 -65 28 -99 10z"/>
<path d="M6872 5777 c-50 -28 -71 -102 -40 -145 7 -10 125 -113 261 -227 137
-114 257 -222 268 -239 29 -48 25 -115 -11 -183 -37 -68 -37 -93 -5 -131 93
-110 238 32 239 233 1 81 -22 155 -63 213 -29 39 -465 412 -544 465 -45 30
-70 33 -105 14z"/>
<path d="M5241 4033 c-19 -20 -32 -50 -44 -103 -18 -81 -195 -895 -308 -1420
-38 -179 -79 -364 -89 -411 -11 -48 -20 -96 -20 -107 0 -53 50 -102 103 -102
36 0 85 45 96 88 6 20 39 172 75 337 36 165 99 458 141 650 42 193 103 474
136 625 83 382 83 377 68 412 -26 64 -109 80 -158 31z"/>
<path d="M5797 3579 c-33 -25 -28 -7 -143 -537 -52 -240 -122 -561 -155 -712
-34 -151 -63 -294 -66 -317 -16 -121 145 -166 189 -53 8 22 209 935 304 1380
19 91 32 175 29 188 -17 67 -103 95 -158 51z"/>
</g>
</svg>
