<?xml version="1.0" standalone="no"?>
<!DOCTYPE svg PUBLIC "-//W3C//DTD SVG 20010904//EN"
 "http://www.w3.org/TR/2001/REC-SVG-20010904/DTD/svg10.dtd">
<svg version="1.0" xmlns="http://www.w3.org/2000/svg"
 width="1224.000000pt" height="1094.000000pt" viewBox="0 0 1224.000000 1094.000000"
 preserveAspectRatio="xMidYMid meet">

<g transform="translate(0.000000,1094.000000) scale(0.100000,-0.100000)"
fill="#000000" stroke="none">
<path d="M2742 9245 c-92 -20 -167 -62 -242 -132 -166 -155 -206 -382 -107
-595 20 -44 505 -725 520 -731 3 -1 38 41 77 93 203 265 508 568 753 745 37
27 67 50 67 52 0 8 -677 496 -720 518 -108 56 -240 75 -348 50z m175 -291
c171 -98 97 -374 -101 -374 -119 0 -206 85 -206 201 0 163 163 255 307 173z"/>
<path d="M9306 9250 c-95 -17 -162 -51 -311 -159 -83 -59 -242 -174 -355 -255
-113 -81 -206 -151 -208 -155 -1 -5 32 -34 75 -67 263 -197 557 -492 757 -757
l58 -77 52 72 c132 183 317 438 374 516 76 105 117 183 137 259 43 164 -12
352 -139 479 -116 116 -286 172 -440 144z m221 -292 c104 -63 134 -196 65
-291 -125 -174 -394 -67 -366 145 18 138 182 218 301 146z"/>
<path d="M5875 9234 c-212 -21 -279 -29 -400 -50 -535 -91 -1058 -306 -1505
-617 -242 -169 -529 -431 -730 -669 -455 -535 -752 -1199 -849 -1898 -201
-1448 436 -2861 1659 -3678 715 -477 1621 -695 2480 -597 446 51 835 165 1235
360 1017 497 1754 1417 2016 2515 38 160 75 388 90 559 17 198 6 637 -20 814
-67 448 -167 776 -351 1152 -146 297 -284 511 -494 765 -90 109 -356 376 -466
466 -586 484 -1229 764 -1975 860 -114 14 -598 27 -690 18z m666 -374 c441
-56 849 -190 1229 -403 1011 -565 1667 -1589 1751 -2733 21 -286 2 -611 -52
-894 -214 -1127 -1003 -2089 -2069 -2523 -557 -227 -1147 -299 -1765 -216
-528 70 -1087 299 -1533 627 -634 466 -1097 1153 -1290 1917 -74 291 -102 524
-102 839 0 634 160 1211 485 1754 508 849 1382 1449 2350 1611 104 17 174 25
415 45 99 9 436 -5 581 -24z"/>
<path d="M5770 8694 c-154 -16 -177 -23 -186 -59 -13 -51 3 -72 122 -161 301
-225 456 -456 525 -784 38 -177 36 -601 -4 -835 -1 -5 12 -11 28 -13 17 -1 76
-12 132 -22 241 -47 454 -154 645 -322 42 -37 81 -68 86 -68 15 0 236 215 319
309 180 206 321 482 375 736 33 157 33 440 -1 595 -41 193 -71 229 -255 320
-311 151 -721 265 -1100 305 -178 18 -500 18 -686 -1z"/>
<path d="M4805 8447 c-163 -66 -370 -189 -575 -340 -366 -271 -657 -586 -879
-949 -55 -92 -59 -111 -27 -142 32 -33 56 -33 186 4 543 153 963 17 1468 -476
l135 -132 66 65 c178 173 449 307 712 352 l104 18 -3 94 c-16 480 -184 913
-461 1189 -144 144 -290 247 -449 316 -103 45 -166 46 -277 1z"/>
<path d="M8227 7841 c-24 -29 -25 -31 -20 -183 18 -561 -201 -928 -779 -1305
-75 -48 -144 -93 -154 -99 -17 -10 -17 -12 3 -40 69 -97 163 -329 192 -474 12
-62 32 -280 27 -289 -2 -3 -6 -42 -7 -86 l-4 -79 35 -8 c204 -45 524 -60 712
-34 186 26 363 79 513 154 227 113 533 407 565 543 45 187 -171 800 -435 1234
-169 278 -531 695 -603 695 -11 0 -31 -13 -45 -29z"/>
<path d="M5945 6710 c-384 -61 -715 -284 -907 -614 -205 -351 -220 -800 -39
-1171 128 -261 327 -459 583 -580 119 -56 195 -81 305 -100 336 -60 644 4 928
193 378 252 595 713 545 1158 -49 429 -301 798 -676 987 -103 53 -138 66 -264
99 -98 25 -137 30 -265 33 -82 2 -177 0 -210 -5z m236 -1026 c96 -29 159 -115
159 -220 0 -59 -45 -142 -98 -179 -39 -27 -51 -30 -121 -30 -68 0 -83 3 -119
28 -62 40 -95 96 -100 168 -8 111 47 194 150 230 65 23 62 23 129 3z"/>
<path d="M3660 6670 c-177 -25 -314 -64 -460 -132 -116 -54 -153 -81 -184
-137 -86 -159 -147 -627 -133 -1026 13 -348 63 -619 183 -985 39 -119 68 -156
113 -145 38 9 46 21 91 125 213 497 531 742 1109 850 91 17 333 50 366 50 8 0
8 27 2 88 -24 251 36 532 163 769 28 50 50 96 50 101 0 15 -133 112 -250 182
-207 125 -408 203 -630 245 -101 19 -329 27 -420 15z"/>
<path d="M9163 5230 c-437 -393 -882 -457 -1568 -225 -71 24 -137 46 -146 50
-11 4 -22 -11 -43 -67 -98 -254 -262 -469 -483 -632 -51 -38 -93 -71 -93 -74
0 -15 109 -208 163 -287 182 -270 404 -473 655 -599 246 -123 631 -191 801
-140 199 59 606 735 766 1269 67 224 108 432 131 666 8 82 -9 109 -68 109 -32
0 -48 -10 -115 -70z"/>
<path d="M4755 5033 c-266 -75 -464 -160 -635 -271 -307 -199 -513 -464 -624
-804 -48 -146 -63 -246 -48 -306 24 -89 140 -241 327 -427 373 -371 764 -623
1238 -801 153 -57 188 -63 216 -35 34 34 26 71 -43 203 -71 134 -131 300 -152
418 -18 102 -17 308 1 416 33 187 139 442 285 684 35 58 72 116 82 129 10 13
18 29 18 35 0 6 -35 33 -78 61 -110 70 -283 246 -366 372 -63 95 -156 285
-156 317 0 23 -11 25 -65 9z"/>
<path d="M5597 4098 c-127 -297 -172 -509 -172 -798 1 -210 12 -297 62 -454
75 -240 262 -534 377 -594 48 -25 60 -27 226 -30 122 -3 216 1 310 13 563 68
1021 227 1460 504 103 65 105 67 108 107 4 53 -20 70 -126 89 -340 61 -554
164 -749 361 -175 178 -304 405 -429 759 -49 140 -30 132 -203 85 -247 -66
-508 -59 -761 20 -36 11 -66 20 -66 20 -1 0 -17 -37 -37 -82z"/>
<path d="M2805 3013 c-58 -82 -169 -235 -246 -342 -77 -107 -151 -215 -164
-240 -74 -147 -73 -314 3 -471 55 -115 202 -229 332 -259 65 -15 177 -13 243
4 102 27 95 22 597 385 124 89 229 166 233 170 5 4 -16 25 -45 46 -263 193
-592 521 -796 797 -23 31 -44 57 -47 57 -2 0 -51 -66 -110 -147z m96 -669 c81
-41 130 -143 109 -227 -59 -231 -400 -194 -400 43 0 68 19 109 70 152 65 57
150 69 221 32z"/>
<path d="M9274 3098 c-201 -264 -488 -554 -757 -762 -48 -37 -85 -72 -82 -76
3 -5 63 -50 133 -101 614 -445 588 -428 689 -454 309 -81 619 144 640 465 9
130 -24 232 -116 360 -124 173 -445 616 -451 623 -4 5 -29 -20 -56 -55z m247
-759 c116 -58 145 -222 56 -317 -64 -69 -179 -83 -259 -33 -51 32 -98 112 -98
166 0 157 160 255 301 184z"/>
</g>
</svg>
