<?xml version="1.0" standalone="no"?>
<!DOCTYPE svg PUBLIC "-//W3C//DTD SVG 20010904//EN"
 "http://www.w3.org/TR/2001/REC-SVG-20010904/DTD/svg10.dtd">
<svg version="1.0" xmlns="http://www.w3.org/2000/svg"
 width="1224.000000pt" height="1224.000000pt" viewBox="0 0 1224.000000 1224.000000"
 preserveAspectRatio="xMidYMid meet">

<g transform="translate(0.000000,1224.000000) scale(0.100000,-0.100000)"
fill="#000000" stroke="none">
<path d="M2880 9825 c-206 -50 -372 -201 -448 -409 l-27 -71 0 -3220 c0 -3130
1 -3222 19 -3275 62 -181 177 -313 341 -391 133 -64 -116 -60 3380 -57 l3180
3 78 28 c197 69 349 225 409 417 l23 75 0 3200 0 3200 -22 70 c-51 160 -173
304 -315 374 -158 78 158 71 -3383 70 -2622 -1 -3190 -3 -3235 -14z m306 -338
c101 -51 158 -147 158 -262 0 -111 -57 -201 -164 -256 -64 -34 -176 -34 -244
0 -58 29 -108 77 -138 134 -32 60 -33 194 -1 252 82 148 247 204 389 132z
m6153 3 c63 -32 108 -77 138 -137 107 -220 -103 -468 -339 -399 -188 54 -271
282 -159 437 64 89 155 133 258 125 34 -3 80 -14 102 -26z m-2829 -140 c693
-99 1235 -341 1740 -776 861 -741 1265 -1880 1070 -3017 -110 -643 -427 -1253
-895 -1722 -523 -524 -1139 -832 -1877 -937 -208 -30 -614 -32 -823 -5 -495
66 -924 218 -1333 474 -206 129 -371 261 -568 458 -551 548 -876 1244 -945
2025 -17 191 -6 555 21 735 185 1226 1023 2230 2184 2619 220 74 489 131 726
155 117 12 598 6 700 -9z m2831 -6098 c58 -28 112 -82 141 -141 32 -65 32
-177 0 -242 -29 -59 -82 -112 -141 -141 -56 -28 -175 -31 -232 -6 -54 23 -117
85 -147 142 -36 70 -38 180 -3 246 40 78 105 133 191 161 44 15 142 5 191 -19z
m-6142 -18 c173 -94 200 -333 52 -467 -57 -52 -104 -70 -186 -71 -116 -2 -208
56 -267 167 -18 33 -23 58 -23 117 1 88 24 145 83 204 66 67 119 87 218 82 55
-2 82 -9 123 -32z"/>
<path d="M5620 9131 c-199 -43 -431 -132 -703 -269 -165 -83 -191 -99 -205
-128 -11 -25 -13 -41 -6 -58 5 -13 80 -100 166 -193 391 -418 642 -799 718
-1091 11 -41 21 -76 23 -78 1 -1 48 13 103 31 205 69 452 82 674 35 52 -10 95
-18 96 -17 1 1 14 67 29 147 36 195 46 497 21 670 -30 208 -88 386 -173 535
-125 218 -231 338 -349 396 -65 32 -75 34 -189 36 -87 2 -143 -3 -205 -16z"/>
<path d="M6946 8939 c-24 -28 -26 -38 -26 -130 0 -124 -17 -414 -31 -534 -44
-375 -126 -681 -234 -867 -25 -43 -45 -81 -45 -86 0 -4 39 -27 88 -51 217
-108 407 -287 548 -517 10 -16 18 -13 90 36 218 147 444 359 567 530 255 358
361 861 226 1072 -90 140 -350 308 -669 431 -161 62 -426 147 -460 147 -19 0
-36 -10 -54 -31z"/>
<path d="M3968 8175 c-83 -21 -129 -47 -202 -116 -150 -140 -296 -422 -436
-839 -64 -191 -71 -242 -41 -274 21 -22 30 -23 224 -30 426 -14 751 -59 1023
-141 126 -38 286 -109 340 -150 18 -14 35 -25 37 -25 3 0 19 30 36 66 91 194
278 412 454 527 48 32 87 62 87 68 0 38 -203 301 -333 431 -215 216 -430 352
-674 428 -198 61 -404 83 -515 55z"/>
<path d="M8675 7542 c-11 -2 -85 -66 -165 -141 -416 -393 -799 -650 -1095
-736 -55 -16 -102 -30 -104 -31 -1 -2 8 -38 22 -81 87 -265 97 -508 32 -764
-6 -25 -4 -27 42 -38 283 -65 630 -73 887 -20 319 66 662 265 787 457 60 92
74 151 66 292 -7 125 -46 285 -112 461 -50 133 -239 527 -274 570 -21 27 -51
38 -86 31z"/>
<path d="M5960 7323 c-291 -46 -532 -170 -723 -373 -214 -227 -327 -515 -327
-831 0 -652 507 -1178 1161 -1206 582 -25 1103 375 1231 947 30 137 32 369 5
500 -52 243 -161 445 -331 615 -238 236 -533 357 -866 354 -69 -1 -136 -3
-150 -6z"/>
<path d="M4090 6540 c-266 -37 -470 -111 -680 -247 -164 -107 -259 -210 -301
-327 -48 -137 -13 -374 99 -671 67 -176 247 -550 278 -576 7 -5 28 -12 47 -16
33 -5 41 1 208 157 432 401 798 644 1096 726 47 13 87 25 89 27 2 2 -8 37 -22
78 -68 198 -89 417 -60 617 9 62 21 125 27 139 5 14 6 30 2 34 -5 5 -73 20
-153 34 -118 22 -183 27 -355 30 -115 2 -239 0 -275 -5z"/>
<path d="M7277 5555 c-27 -52 -76 -133 -109 -180 -76 -106 -238 -264 -341
-330 -42 -27 -77 -54 -77 -58 0 -13 62 -106 135 -202 239 -314 533 -542 825
-640 100 -33 280 -73 366 -81 94 -9 206 10 281 47 76 36 174 133 244 239 109
166 250 488 333 763 39 127 42 148 26 178 -22 40 -60 49 -222 49 -564 0 -1122
117 -1383 289 l-30 20 -48 -94z"/>
<path d="M4930 5458 c-191 -130 -392 -309 -510 -453 -128 -157 -232 -346 -284
-517 -83 -271 -88 -503 -13 -631 107 -183 457 -381 955 -541 246 -79 262 -69
262 156 1 552 111 1110 272 1377 21 35 37 66 35 68 -2 2 -41 21 -86 43 -217
105 -371 240 -523 459 -25 36 -49 66 -54 67 -5 1 -29 -12 -54 -28z"/>
<path d="M6542 4904 c-35 -13 -109 -34 -165 -46 -166 -36 -442 -28 -593 17
-20 6 -23 1 -33 -46 -58 -268 -69 -582 -31 -824 26 -160 101 -373 177 -499
189 -315 318 -415 534 -416 204 0 530 104 890 286 209 105 219 113 219 167 -1
39 -7 49 -106 152 -423 441 -714 879 -784 1183 -14 60 -16 61 -108 26z"/>
</g>
</svg>
